<svg width="520" height="192" viewBox="0 0 520 192" fill="none" xmlns="http://www.w3.org/2000/svg">
<mask id="mask0_36_822" style="mask-type:luminance" maskUnits="userSpaceOnUse" x="0" y="-1" width="520" height="193">
<path d="M0.430908 -0.12529H519.569V191.621H0.430908V-0.12529Z" fill="white"/>
</mask>
<g mask="url(#mask0_36_822)">
<path d="M76.4868 123.406C75.5983 125.664 74.5506 127.987 73.3466 130.383C72.1374 132.779 70.9335 135.016 69.7243 137.098C68.5203 139.176 67.5243 140.604 66.7445 141.379C66.2465 141.869 65.6957 142.294 65.0942 142.648C64.4917 143 63.8333 143.177 63.1274 143.177C62.5555 143.177 62.0438 142.966 61.5805 142.54C61.1216 142.118 60.8915 141.624 60.8915 141.06C60.8915 139.017 61.4592 136.87 62.5946 134.612C63.7288 132.357 65.1628 130.189 66.9049 128.112C68.6417 126.034 70.504 124.129 72.493 122.399C74.4809 120.674 76.3264 119.354 78.0294 118.437C77.8859 119.496 77.3752 121.152 76.4868 123.406ZM139.192 107.072C139.725 106.543 139.993 105.894 139.993 105.115C139.993 103.919 139.634 103.128 138.927 102.736C138.217 102.349 137.363 102.052 136.371 101.837C135.306 101.557 134.24 101.398 133.178 101.364C132.113 101.33 131.047 101.312 129.982 101.312H124.767C123.064 101.312 121.323 101.381 119.551 101.523C120.543 98.6329 121.677 95.6383 122.955 92.5368C124.234 89.4353 125.619 86.3685 127.11 83.3403C128.6 80.307 130.176 77.348 131.845 74.4571C133.513 71.5705 135.237 68.8556 137.009 66.3179C137.363 65.7541 137.827 65.1915 138.394 64.6278C138.962 64.0641 139.512 63.4616 140.045 62.8298C140.578 62.1927 141.019 61.5431 141.375 60.8725C141.73 60.205 141.908 59.5166 141.908 58.8115C141.908 58.0371 141.444 57.6505 140.521 57.6505C139.811 57.6505 139.048 57.9638 138.235 58.6009C137.42 59.2327 136.636 59.9944 135.89 60.8725C135.145 61.7537 134.435 62.6359 133.764 63.5182C133.088 64.3994 132.573 65.1223 132.221 65.6819C128.176 71.3944 124.537 77.3134 121.305 83.443C118.078 89.5768 115.218 95.8835 112.737 102.366C108.621 102.793 104.575 103.549 100.598 104.642C96.6255 105.735 92.6497 106.914 88.677 108.182C89.881 103.532 90.9118 98.8089 91.7655 94.0163C92.6149 89.2247 93.0433 84.3934 93.0433 79.5326C93.0433 77.7001 92.8829 75.7648 92.5621 73.7174C92.2424 71.6742 91.6568 69.807 90.8042 68.1159C89.9548 66.4216 88.7804 65.0144 87.2905 63.888C85.8007 62.7606 83.8855 62.1927 81.542 62.1927C81.0482 62.1927 80.2125 62.3006 79.0424 62.5112C77.869 62.7218 76.6989 63.0226 75.5297 63.4102C74.3554 63.7969 73.3118 64.2401 72.3885 64.7305C71.4663 65.225 71.0021 65.7887 71.0021 66.4216C71.0021 66.9161 71.2711 67.3594 71.804 67.746C72.3368 68.1337 72.8138 68.3265 73.2379 68.3265C73.8795 68.3265 74.464 68.2018 74.9969 67.9566C75.5297 67.7114 76.1143 67.5867 76.7506 67.5867C78.1719 67.5867 79.3241 68.0991 80.2125 69.1186C81.0999 70.1423 81.7721 71.3598 82.2353 72.766C82.6943 74.1774 83.015 75.6401 83.1923 77.1542C83.3706 78.6682 83.4614 79.9549 83.4614 81.0121C83.4614 81.5077 83.3706 82.5995 83.1923 84.2907C83.015 85.9808 82.785 87.9559 82.5043 90.2097C82.2184 92.4677 81.8797 94.8252 81.4903 97.2949C81.0999 99.7593 80.7454 102.052 80.4246 104.164C80.1081 106.281 79.8052 108.023 79.5193 109.4C79.2376 110.772 79.0255 111.529 78.882 111.671C77.6738 112.587 76.396 113.434 75.0486 114.208C73.7012 114.983 72.4234 115.83 71.2152 116.747C69.4436 118.085 67.5981 119.655 65.683 121.449C63.7637 123.247 62.01 125.187 60.4114 127.265C58.8129 129.343 57.5171 131.527 56.5253 133.82C55.5334 136.108 55.0354 138.453 55.0354 140.85C55.0354 143.74 55.7972 146.084 57.3219 147.878C58.8477 149.676 61.1384 150.575 64.1889 150.575C66.3193 150.575 68.3251 149.921 70.2054 148.618C72.0857 147.314 73.7877 145.607 75.3177 143.49C76.8424 141.379 78.2415 138.999 79.5193 136.359C80.7971 133.713 81.9324 131.054 82.9285 128.375C83.9204 125.698 84.7909 123.144 85.5358 120.709C86.2818 118.278 86.9012 116.253 87.3992 114.631C91.2326 112.939 95.1188 111.477 99.0566 110.242C102.993 109.012 106.988 108.005 111.034 107.231C109.826 110.612 108.867 114.118 108.157 117.749C107.447 121.379 107.096 124.993 107.096 128.585C107.096 130.207 107.217 131.971 107.468 133.872C107.715 135.773 108.266 137.434 109.12 138.84C109.47 139.477 110.003 140.11 110.713 140.742C111.424 141.379 112.169 141.696 112.949 141.696C113.447 141.696 113.963 141.499 114.495 141.112C115.023 140.729 115.292 140.251 115.292 139.688C115.292 139.477 115.167 139.124 114.92 138.629C114.669 138.135 114.387 137.52 114.066 136.78C113.75 136.04 113.464 135.209 113.217 134.294C112.966 133.382 112.844 132.392 112.844 131.333C112.844 129.433 112.966 127.372 113.217 125.148C113.464 122.928 113.819 120.709 114.278 118.489C114.742 116.269 115.292 114.084 115.929 111.934C116.57 109.787 117.315 107.864 118.164 106.173C119.516 106.031 120.846 105.911 122.158 105.803C123.471 105.696 124.8 105.644 126.152 105.644C128.137 105.644 130.016 106.015 131.793 106.754C133.569 107.494 135.375 107.864 137.225 107.864C138.005 107.864 138.659 107.601 139.192 107.072Z" fill="#FFF9F9"/>
<path d="M160.539 122.296C160.253 124.025 159.811 125.699 159.21 127.316C158.603 128.938 157.823 130.475 156.866 131.915C155.908 133.36 154.752 134.612 153.404 135.671C152.694 136.234 151.931 136.712 151.118 137.099C150.299 137.485 149.427 137.679 148.509 137.679C147.444 137.679 146.555 137.378 145.845 136.78C145.135 136.183 144.585 135.46 144.195 134.612C143.806 133.765 143.541 132.831 143.398 131.812C143.255 130.788 143.185 129.854 143.185 129.008C143.185 127.39 143.45 125.381 143.983 122.985C144.516 120.589 145.295 118.261 146.326 116.008C147.353 113.749 148.631 111.813 150.16 110.191C151.684 108.569 153.439 107.761 155.428 107.761C156.562 107.761 157.486 108.097 158.196 108.763C158.906 109.435 159.474 110.243 159.898 111.194C160.327 112.149 160.609 113.19 160.751 114.312C160.895 115.444 160.963 116.429 160.963 117.276C160.963 118.898 160.821 120.572 160.539 122.296ZM163.36 105.645C162.614 104.238 161.605 103.073 160.327 102.156C159.049 101.24 157.416 100.784 155.428 100.784C152.235 100.784 149.415 101.751 146.963 103.692C144.516 105.627 142.44 108.007 140.738 110.824C139.031 113.646 137.736 116.678 136.852 119.918C135.965 123.161 135.518 126.121 135.518 128.796C135.518 130.349 135.696 131.971 136.051 133.662C136.406 135.352 136.973 136.87 137.753 138.208C138.537 139.546 139.582 140.656 140.894 141.538C142.207 142.415 143.822 142.858 145.742 142.858C147.232 142.858 148.682 142.596 150.104 142.067C151.524 141.538 152.837 140.884 154.046 140.11C156.103 138.772 157.84 137.15 159.261 135.244C160.678 133.343 161.852 131.3 162.774 129.114C163.697 126.93 164.368 124.658 164.798 122.296C165.222 119.935 165.434 117.591 165.434 115.268C165.434 113.646 165.274 111.989 164.958 110.299C164.638 108.604 164.105 107.055 163.36 105.645Z" fill="#FFF9F9"/>
<path d="M302.395 150.53C301.729 153.388 300.927 156.258 299.974 159.15C299.027 162.043 297.912 164.81 296.631 167.453C295.351 170.1 293.883 172.333 292.228 174.171C291.653 174.804 290.994 175.493 290.247 176.233C289.505 176.973 288.699 177.662 287.831 178.294C286.964 178.931 286.056 179.461 285.103 179.882C284.156 180.305 283.182 180.515 282.193 180.515C281.2 180.515 280.393 180.287 279.778 179.831C279.158 179.37 278.659 178.806 278.29 178.136C277.917 177.464 277.67 176.723 277.544 175.914C277.423 175.105 277.357 174.382 277.357 173.745C277.357 170.642 278.245 167.612 280.025 164.651C281.8 161.69 284.008 158.884 286.657 156.241C289.299 153.598 292.148 151.145 295.205 148.89C298.259 146.635 301.109 144.586 303.756 142.757C303.509 145.081 303.056 147.672 302.395 150.53ZM241.044 116.977C241.789 114.953 242.697 112.931 243.772 110.908C244.845 108.89 246.006 107.116 247.241 105.589C248.481 104.064 249.722 103.303 250.962 103.303C251.784 103.303 252.344 103.57 252.632 104.099C252.924 104.633 253.065 105.184 253.065 105.748C253.065 107.168 252.612 108.639 251.704 110.164C250.797 111.691 249.676 113.181 248.356 114.631C247.034 116.086 245.587 117.398 244.019 118.569C242.45 119.739 241.003 120.683 239.681 121.388C239.848 120.467 240.302 118.995 241.044 116.977ZM313.116 107.637C312.824 106.513 312.431 105.808 311.937 105.524C311.109 105.029 310.282 104.784 309.461 104.784C308.467 104.784 307.619 105.137 306.919 105.842C306.213 106.548 305.572 107.181 304.997 107.744C302.022 110.99 299.107 114.248 296.258 117.527C293.409 120.807 290.288 123.927 286.903 126.889C286.571 127.173 286.01 127.629 285.229 128.265C284.443 128.898 283.615 129.536 282.748 130.168C281.881 130.805 281.033 131.368 280.212 131.859C279.385 132.355 278.724 132.6 278.224 132.6C277.564 132.6 277.191 132.32 277.11 131.756C277.029 131.192 276.99 130.732 276.99 130.379C276.99 129.393 277.17 128.158 277.544 126.677C277.917 125.197 278.371 123.647 278.911 122.024C279.445 120.403 280.025 118.849 280.645 117.368C281.261 115.888 281.78 114.691 282.193 113.774C282.607 112.926 283.141 111.889 283.802 110.654C284.463 109.418 284.796 108.343 284.796 107.426C284.796 106.229 284.256 105.205 283.182 104.362C282.108 103.514 280.872 103.092 279.465 103.092C278.31 103.092 277.357 103.371 276.616 103.936C275.869 104.504 275.254 105.205 274.755 106.053C274.341 106.685 274.034 107.34 273.827 108.007C273.62 108.678 273.393 109.367 273.146 110.073C271.987 113.103 270.978 116.245 270.111 119.485C269.638 121.252 269.306 123.007 269.091 124.751C268.175 125.922 267.178 127.093 266.081 128.265C264.427 130.026 262.612 131.597 260.625 132.97C258.643 134.347 256.495 135.475 254.186 136.357C251.87 137.239 249.389 137.678 246.747 137.678C243.852 137.678 241.789 136.989 240.549 135.612C239.308 134.231 238.694 132.341 238.694 129.935C238.694 128.592 238.895 127.108 239.308 125.481C241.209 124.917 243.277 123.858 245.506 122.3C247.741 120.747 249.823 118.96 251.765 116.942C253.707 114.927 255.319 112.844 256.601 110.689C257.882 108.532 258.522 106.57 258.522 104.8C258.522 102.963 257.922 101.444 256.722 100.239C255.527 99.0377 253.812 98.4349 251.578 98.4349C248.275 98.4349 245.24 99.5325 242.471 101.715C239.702 103.901 237.327 106.566 235.345 109.702C233.363 112.84 231.83 116.098 230.761 119.485C230.217 121.199 229.813 122.785 229.543 124.246C229.41 124.423 229.287 124.592 229.147 124.775C227.907 126.398 226.5 127.964 224.932 129.479C223.363 130.998 221.729 132.302 220.039 133.396C218.345 134.489 216.671 135.035 215.017 135.035C214.029 135.035 213.262 134.82 212.727 134.399C212.188 133.977 211.795 133.447 211.548 132.811C211.301 132.178 211.155 131.489 211.114 130.749C211.074 130.009 211.053 129.32 211.053 128.688C211.053 126.221 211.134 123.751 211.301 121.284C211.467 118.815 211.548 116.348 211.548 113.878C211.548 113.103 211.507 112.151 211.426 111.024C211.34 109.896 211.114 108.769 210.741 107.637C210.372 106.513 209.813 105.558 209.071 104.784C208.325 104.009 207.337 103.621 206.096 103.621C204.523 103.621 202.687 104.396 200.579 105.945C198.471 107.499 196.384 109.299 194.322 111.343C192.253 113.387 190.332 115.466 188.557 117.584C186.782 119.696 185.441 121.319 184.533 122.447C184.861 120.403 185.274 118.358 185.769 116.313C186.267 114.269 186.969 112.259 187.877 110.284C188.622 108.592 189.343 106.742 190.045 104.732C190.746 102.722 191.098 100.798 191.098 98.9643C191.098 97.8373 190.831 96.9546 190.291 96.3225C189.757 95.6851 188.784 95.3706 187.381 95.3706C185.808 95.3706 184.301 95.8958 182.859 96.9546C181.411 98.0135 180.524 99.175 180.191 100.446C179.777 102.067 179.41 103.725 179.077 105.416C178.749 107.112 178.375 108.769 177.961 110.387C176.721 115.466 175.461 120.755 174.184 126.256C172.898 131.756 172.263 137.114 172.263 142.331C172.263 143.036 172.465 143.657 172.879 144.181C173.293 144.71 173.952 144.978 174.866 144.978C176.021 144.978 177.034 144.624 177.901 143.919C178.768 143.213 179.449 142.439 179.944 141.591C181.35 138.913 182.797 136.288 184.28 133.71C185.769 131.141 187.422 128.619 189.238 126.148C190.725 124.103 192.38 121.956 194.2 119.696C196.015 117.441 197.957 115.466 200.025 113.774C200.353 113.494 200.806 113.138 201.386 112.715C201.961 112.294 202.461 112.083 202.873 112.083C203.368 112.083 203.68 112.363 203.802 112.926C203.927 113.494 203.989 113.917 203.989 114.197C203.989 116.245 203.907 118.25 203.742 120.226C203.575 122.202 203.494 124.211 203.494 126.256C203.494 127.594 203.555 129.075 203.68 130.697C203.802 132.32 204.175 133.835 204.796 135.246C205.416 136.658 206.324 137.838 207.519 138.788C208.719 139.74 210.393 140.217 212.541 140.217C214.851 140.217 217.226 139.581 219.667 138.311C222.103 137.046 224.417 135.491 226.606 133.659C227.577 132.844 228.491 132.003 229.366 131.141C229.49 131.982 229.662 132.805 229.894 133.606C230.388 135.333 231.195 136.852 232.309 138.156C233.423 139.46 234.85 140.519 236.586 141.327C238.32 142.137 240.428 142.541 242.905 142.541C246.294 142.541 249.556 142.059 252.698 141.096C255.834 140.127 258.77 138.823 261.498 137.179C264.219 135.541 266.717 133.627 268.985 131.443C269.01 131.636 269.025 131.822 269.057 132.018C269.218 133.042 269.551 133.96 270.045 134.769C270.545 135.583 271.225 136.249 272.092 136.779C272.959 137.308 274.094 137.57 275.501 137.57C277.564 137.57 280.025 136.71 282.875 134.98C285.723 133.254 288.552 131.209 291.361 128.847C294.17 126.484 296.752 124.087 299.107 121.654C301.462 119.219 303.137 117.265 304.13 115.785C304.376 121.284 304.498 126.75 304.498 132.178V135.246C304.498 136.233 304.458 137.222 304.376 138.208C301.155 139.972 297.665 142.155 293.903 144.767C290.146 147.375 286.631 150.211 283.368 153.28C280.106 156.349 277.378 159.606 275.189 163.063C273 166.519 271.906 170.009 271.906 173.534C271.906 174.945 272.092 176.341 272.466 177.713C272.834 179.086 273.434 180.305 274.261 181.363C275.088 182.422 276.162 183.283 277.483 183.954C278.805 184.626 280.413 184.957 282.314 184.957C284.302 184.957 286.197 184.643 288.018 184.005C289.833 183.373 291.528 182.559 293.102 181.574C294.669 180.584 296.137 179.44 297.499 178.136C298.86 176.831 300.04 175.509 301.028 174.171C304.084 170.151 306.46 165.813 308.154 161.161C309.849 156.508 311.13 151.726 311.997 146.828C312.864 141.926 313.404 136.989 313.611 132.018C313.817 127.048 313.918 122.236 313.918 117.584V114.937C313.918 113.74 313.858 112.505 313.731 111.235C313.611 109.966 313.404 108.769 313.116 107.637Z" fill="#FFF9F9"/>
</g>
</svg>
