<svg width="1728" height="1117" viewBox="0 0 1728 1117" fill="none" xmlns="http://www.w3.org/2000/svg">
<g clip-path="url(#clip0_2_2)">
<rect width="1728" height="1117" fill="#FFFFFE"/>
<rect width="2066.08" height="768.775" transform="translate(-185.295 846.598) rotate(-15)" fill="#37474F"/>
<rect width="2205.84" height="899.114" transform="translate(-459 40.7419) rotate(-15)" fill="#263238"/>
<path opacity="0.2" d="M1217.61 668.692V647.736L1187.34 630.262V609.306L1157.08 591.814V570.875L1126.84 553.4L996.073 624.725L1030.04 644.238V665.194L1060.3 682.651V703.624L1090.56 721.082V742.055L1223.12 933.631C1354.4 911.469 1454.61 844.627 1496.89 758.239C1501.78 748.254 1506.14 738.194 1509.95 728.062L1217.61 668.692Z" fill="#92E3A9"/>
<path opacity="0.15" d="M1031.21 260.153C942.733 311.099 871 447.636 871 565.186C871 635.034 896.337 682.465 935.532 698.768L951.716 689.427L1110.84 597.571L1127.43 587.993C1166.34 526.772 1191.49 450.438 1191.49 380.811C1191.42 263.294 1119.7 209.257 1031.21 260.153Z" fill="#92E3A9"/>
<path opacity="0.15" d="M1031.21 294.151C956.862 336.946 896.592 451.677 896.592 550.462C896.592 649.248 956.862 694.658 1031.21 651.897C1105.56 609.136 1165.84 494.353 1165.84 395.568C1165.84 296.783 1105.57 251.373 1031.21 294.151Z" fill="#92E3A9"/>
<path opacity="0.15" d="M1031.21 318.113C967.051 355.168 915.035 454.547 915.035 540.086C915.035 625.625 967.051 664.973 1031.21 627.935C1095.37 590.897 1147.38 491.5 1147.38 405.944C1147.38 320.388 1095.39 281.041 1031.21 318.113Z" fill="#92E3A9"/>
<path d="M962.704 544.145C962.704 470.035 1007.77 383.936 1063.36 351.822C1087.86 337.693 1110.3 336.386 1127.74 345.692L1105.13 332.615C1087.47 322.426 1064.38 323.275 1039.17 337.846C983.558 369.959 938.504 456.059 938.504 530.169C938.504 570.739 952.005 599.303 973.351 611.598C977.003 613.687 990.571 621.55 996.107 624.742C975.542 611.989 962.704 583.798 962.704 544.145Z" fill="#92E3A9"/>
<path opacity="0.3" d="M962.704 544.145C962.704 470.035 1007.77 383.936 1063.36 351.822C1087.86 337.693 1110.3 336.386 1127.74 345.692L1105.13 332.615C1087.47 322.426 1064.38 323.275 1039.17 337.846C983.558 369.959 938.504 456.059 938.504 530.169C938.504 570.739 952.005 599.303 973.351 611.598C977.003 613.687 990.571 621.55 996.107 624.742C975.542 611.989 962.704 583.798 962.704 544.145Z" fill="white"/>
<path d="M1102.91 367.361C1111.69 379.079 1116.39 397.725 1115.34 421.976C1112.81 481.413 1076.65 552.127 1034.61 579.791C1021.84 588.197 1009.96 591.678 999.742 590.744C1012.51 607.726 1033.91 610.155 1058.81 593.767C1100.87 566.103 1137.03 495.44 1139.56 435.935C1141.29 394.532 1126.31 369.45 1102.91 367.361Z" fill="#92E3A9"/>
<path opacity="0.15" d="M1102.91 367.361C1111.69 379.079 1116.39 397.725 1115.34 421.976C1112.81 481.413 1076.65 552.127 1034.61 579.791C1021.84 588.197 1009.96 591.678 999.742 590.744C1012.51 607.726 1033.91 610.155 1058.81 593.767C1100.87 566.103 1137.03 495.44 1139.56 435.935C1141.29 394.532 1126.31 369.45 1102.91 367.361Z" fill="black"/>
<path d="M988.347 385.566L1012.55 399.542L1014.48 396.944L990.283 382.934C989.62 383.834 988.992 384.632 988.347 385.566Z" fill="#92E3A9"/>
<path d="M977.24 466.503L952.956 452.56C952.616 453.494 952.293 454.462 951.971 455.413L976.17 469.39C976.51 468.405 976.816 467.437 977.24 466.503Z" fill="#92E3A9"/>
<path d="M1087.62 326.451L1111.84 340.478C1112.83 340.648 1113.81 340.818 1114.78 341.022L1090.56 327.045C1089.59 326.791 1088.61 326.604 1087.62 326.451Z" fill="#92E3A9"/>
<path d="M966.117 507.549C966.304 506.496 966.508 505.426 966.711 504.373L942.512 490.397C942.291 491.449 942.087 492.502 941.9 493.572L966.117 507.549Z" fill="#92E3A9"/>
<path d="M1012.14 358.394L1036.34 372.371C1037.17 371.573 1038.04 370.774 1038.85 370.01L1014.6 356.034C1013.8 356.798 1012.9 357.596 1012.14 358.394Z" fill="#92E3A9"/>
<path d="M966.236 577.413C966.015 576.479 965.811 575.528 965.607 574.577L965.421 574.153L941.34 560.244C941.561 561.331 941.782 562.401 942.036 563.454L966.236 577.413Z" fill="#92E3A9"/>
<path d="M1066.52 327.079C1065.5 327.283 1064.44 327.555 1063.41 327.81L1087.62 341.786C1088.68 341.514 1089.73 341.276 1090.77 341.073L1066.52 327.079Z" fill="#92E3A9"/>
<path d="M1064.87 351.007L1040.67 337.082C1040.16 337.37 1039.67 337.608 1039.17 337.897L1037.7 338.797L1061.9 352.773L1063.36 351.873L1064.87 351.007Z" fill="#92E3A9"/>
<path d="M967.832 418.596L992.032 432.572L993.458 429.923L969.259 415.947C968.749 416.796 968.291 417.679 967.832 418.596Z" fill="#92E3A9"/>
<path d="M976.51 604.075C975.967 603.141 975.457 602.207 974.931 601.239L950.748 587.28C951.258 588.248 951.801 589.182 952.344 590.116L976.51 604.075Z" fill="#92E3A9"/>
<path d="M938.504 530.441L962.704 544.434V544.145C962.704 543.109 962.704 542.039 962.704 540.986L938.487 527.01C938.487 528.063 938.487 529.133 938.487 530.169L938.504 530.441Z" fill="#92E3A9"/>
<path d="M1063.36 351.822C1007.77 383.935 962.703 470.035 962.703 544.145C962.703 618.255 1007.77 652.338 1063.36 620.242C1118.94 588.146 1164.04 502.046 1164.04 427.919C1164.04 353.792 1118.96 319.726 1063.36 351.822ZM1139.5 435.935C1136.97 495.372 1100.82 566.086 1058.75 593.75C1016.69 621.414 984.678 595.618 987.209 536.13C989.739 476.641 1025.93 405.978 1067.96 378.314C1109.99 350.65 1142.05 376.446 1139.5 435.935Z" fill="#92E3A9"/>
<g opacity="0.15">
<path d="M1042.76 400.68C1043.57 399.78 1044.37 398.863 1045.2 397.98L1038.83 370.01C1037.99 370.774 1037.14 371.556 1036.32 372.354L1042.76 400.68Z" fill="black"/>
<path d="M1061.88 352.705V382.696C1062.86 381.932 1063.85 381.184 1064.85 380.471V350.99L1063.36 351.822L1061.88 352.705Z" fill="black"/>
<path d="M1082.34 370.774C1083.43 370.35 1084.52 369.959 1085.59 369.62L1090.68 341.056C1089.65 341.259 1088.59 341.497 1087.54 341.752L1082.34 370.774Z" fill="black"/>
<path d="M1000.29 473.975L1001.35 471.156L977.24 466.486C976.901 467.437 976.561 468.388 976.238 469.339L1000.29 473.975Z" fill="black"/>
<path d="M1011.71 447.466L1013.07 444.749L993.441 429.906L992.032 432.572L1011.71 447.466Z" fill="black"/>
<path d="M1159.92 392.325L1138.57 412.347C1138.74 413.536 1138.89 414.741 1139.03 415.998L1160.78 395.619C1160.46 394.533 1160.21 393.412 1159.92 392.325Z" fill="black"/>
<path d="M987.939 526.433L962.738 540.969C962.738 542.039 962.738 543.092 962.738 544.145V544.434L987.633 530.067C987.684 528.861 987.82 527.638 987.939 526.433Z" fill="black"/>
<path d="M992.015 501.809C992.269 500.739 992.541 499.669 992.796 498.582L966.694 504.339C966.491 505.392 966.287 506.462 966.1 507.515L992.015 501.809Z" fill="black"/>
<path d="M1102.4 367.344C1103.43 367.429 1104.44 367.548 1105.42 367.718L1114.8 340.937C1113.81 340.733 1112.83 340.546 1111.82 340.376L1102.4 367.344Z" fill="black"/>
<path d="M1132.02 389.625C1132.49 390.627 1132.95 391.679 1133.39 392.749L1150.88 369.195C1150.36 368.244 1149.8 367.327 1149.18 366.427L1132.02 389.625Z" fill="black"/>
<path d="M1119.65 373.848C1120.45 374.46 1121.23 375.105 1122 375.801L1135.17 350.566C1134.38 349.937 1133.58 349.343 1132.75 348.766L1119.65 373.848Z" fill="black"/>
<path d="M1025.93 422.74L1027.76 419.972L1014.47 396.927L1012.53 399.542L1025.93 422.74Z" fill="black"/>
<path d="M1084.48 570.807C1083.68 571.741 1082.78 572.641 1082.05 573.524L1088.42 601.579C1089.27 600.815 1090.12 599.982 1090.94 599.184L1084.48 570.807Z" fill="black"/>
<path d="M1116.05 522.561C1115.61 523.478 1115.15 524.378 1114.69 525.278L1134.38 540.154L1135.75 537.454L1116.05 522.561Z" fill="black"/>
<path d="M1101.69 548L1099.85 550.785L1113.18 573.881C1113.83 573.015 1114.49 572.183 1115.12 571.283L1101.69 548Z" fill="black"/>
<path d="M1127.4 495.406C1127.06 496.357 1126.73 497.308 1126.38 498.242L1150.49 502.896C1150.83 501.945 1151.15 500.994 1151.48 500.043L1127.4 495.406Z" fill="black"/>
<path d="M1135.36 467.233C1135.14 468.303 1134.92 469.373 1134.66 470.426L1160.65 464.737C1160.83 463.667 1161 462.614 1161.19 461.561L1135.36 467.233Z" fill="black"/>
<path d="M1164.04 424.795L1139.32 438.975C1139.32 440.163 1139.16 441.352 1139.08 442.558L1164.04 428.208V427.919C1164.04 426.866 1164.04 425.83 1164.04 424.795Z" fill="black"/>
<path d="M1064.85 619.342V589.386C1063.87 590.15 1062.86 590.897 1061.88 591.61V621.091L1063.36 620.242C1063.85 619.953 1064.36 619.631 1064.85 619.342Z" fill="black"/>
<path d="M993.9 580.674C993.441 579.638 993 578.568 992.575 577.447L974.931 601.222C975.44 602.19 975.984 603.141 976.527 604.058L993.9 580.674Z" fill="black"/>
<path d="M1006.01 597.401C1005.23 596.756 1004.46 596.077 1003.72 595.346L990.469 620.684C991.251 621.329 992.049 621.94 992.864 622.535L1006.01 597.401Z" fill="black"/>
<path d="M1043.81 601.545C1042.72 601.952 1041.65 602.309 1040.58 602.649L1035.49 631.128C1036.54 630.924 1037.59 630.703 1038.65 630.449L1043.81 601.545Z" fill="black"/>
<path d="M1023.35 604.652C1022.33 604.551 1021.34 604.398 1020.36 604.211L1011.09 630.873C1012.07 631.111 1013.06 631.297 1014.04 631.467L1023.35 604.652Z" fill="black"/>
<path d="M987.888 557.187C987.752 555.965 987.633 554.708 987.531 553.434L965.454 574.034C965.692 575.171 965.93 576.292 966.185 577.43L987.888 557.187Z" fill="black"/>
</g>
<path d="M1090.53 742.072L975.491 675.655V612.77L999.708 626.746L1030 644.255V665.211L1060.27 682.668V703.641L1090.53 721.099V742.072Z" fill="#263238"/>
<path d="M999.742 626.78L1126.84 553.4L1157.08 570.875L1030 644.255L999.742 626.78Z" fill="#455A64"/>
<path d="M1030 644.255V665.211L1157.08 591.831V570.875L1030 644.255Z" fill="#37474F"/>
<path d="M1030 665.211L1157.08 591.831L1187.34 609.306L1060.27 682.668L1030 665.211Z" fill="#455A64"/>
<path d="M1060.27 682.669V703.642L1187.34 630.262V609.306L1060.27 682.669Z" fill="#37474F"/>
<path d="M1060.27 703.642L1187.34 630.262L1217.61 647.736L1090.53 721.099L1060.27 703.642Z" fill="#455A64"/>
<path d="M1090.53 721.099V742.072L1217.61 668.692V647.736L1090.53 721.099Z" fill="#37474F"/>
<path d="M1126.92 428.785C1124.39 488.223 1088.22 558.936 1046.17 586.617C1030.55 596.892 1016.32 599.796 1004.7 596.314C992.813 585.463 986.02 564.676 987.209 536.163C989.756 476.726 1025.93 406.012 1067.96 378.348C1083.6 368.057 1097.86 365.17 1109.46 368.669C1121.42 379.537 1128.14 400.255 1126.92 428.785Z" fill="#92E3A9"/>
<path opacity="0.9" d="M1126.92 428.785C1124.39 488.223 1088.22 558.936 1046.17 586.617C1030.55 596.892 1016.32 599.796 1004.7 596.314C992.813 585.463 986.02 564.676 987.209 536.163C989.756 476.726 1025.93 406.012 1067.96 378.348C1083.6 368.057 1097.86 365.17 1109.46 368.669C1121.42 379.537 1128.14 400.255 1126.92 428.785Z" fill="white"/>
<path opacity="0.1" d="M1045.98 556.151C1032.86 557.671 1020.71 563.847 1011.75 573.558C1006.91 578.755 1002.96 584.717 1000.06 591.203C1001.46 593.03 1003.01 594.734 1004.7 596.297C1007.2 597.028 1009.78 597.472 1012.38 597.622C1013.06 595.924 1013.57 594.141 1014.16 592.425C1017.1 584.439 1022.33 577.499 1029.2 572.48C1036.07 567.461 1044.28 564.586 1052.78 564.218C1058.6 564.065 1064.38 565.118 1070.17 565.577C1072.46 563.046 1074.7 560.482 1076.96 557.697C1066.7 557.17 1056.12 555.133 1045.98 556.151ZM1043.47 469.186C1055.36 470.731 1068.33 471.394 1078.73 465.314C1090.49 458.419 1096.08 444.749 1101.75 432.369C1107.03 420.872 1114.25 408.729 1125.78 404.28C1123.39 388.198 1117.65 376.09 1109.45 368.618C1103.85 367.008 1097.95 366.757 1092.24 367.887C1086.49 374.475 1082.3 382.277 1079.98 390.711C1077.27 400.221 1076.31 410.326 1071.95 419.173C1067.51 428.069 1059.96 435.033 1050.74 438.754C1043.47 441.641 1035.57 442.337 1027.85 443.526C1022.46 444.322 1017.13 445.491 1011.9 447.024C1007.87 455.036 1004.27 463.262 1001.13 471.665C1003.22 470.599 1005.39 469.707 1007.62 468.999C1019.15 465.45 1031.58 467.657 1043.47 469.186ZM1055.63 409.748C1059.43 403.176 1060.72 395.517 1062.81 388.198C1063.56 385.464 1064.51 382.798 1065.39 380.132C1062.68 382.045 1059.98 384.128 1057.31 386.381C1053.47 395.704 1049.74 405.061 1042.66 412.092C1039.05 415.628 1034.74 418.37 1030 420.141C1029.11 420.441 1028.19 420.651 1027.25 420.77C1025.52 423.317 1023.82 425.921 1022.16 428.582C1025.99 428.274 1029.79 427.626 1033.5 426.646C1042.7 423.885 1050.58 417.858 1055.65 409.697L1055.63 409.748ZM1126.95 420.057C1123.63 421.778 1120.63 424.045 1118.06 426.764C1111.74 433.693 1108.34 442.677 1104.47 451.236C1099.07 463.429 1092.02 475.843 1080.29 482.16C1072.48 486.355 1063.31 487.408 1054.53 487.646C1037.8 488.104 1020.82 485.947 1004.46 489.531C1000.94 490.3 997.492 491.398 994.171 492.808C993.039 496.872 992.049 500.92 991.2 504.95C995.008 502.935 999.037 501.367 1003.21 500.28C1027.37 494.167 1054.15 507.583 1077.3 498.582C1094.28 491.942 1104.62 475.079 1112.96 458.878C1116.36 452.272 1120.01 445.292 1125.87 440.911C1126.32 436.869 1126.64 432.861 1126.82 428.887C1127.04 425.746 1127.07 422.842 1127.02 420.006L1126.95 420.057ZM1066.67 519.045C1053.59 519.521 1040.53 518.298 1027.46 518.111C1020.76 517.747 1014.04 518.435 1007.55 520.149C1001.87 522.07 996.533 524.872 991.726 528.454C990.249 529.506 988.822 530.593 987.413 531.697C987.311 533.209 987.209 534.703 987.141 536.18C986.411 553.417 988.601 567.801 993.068 578.908C995.954 576.402 998.521 573.55 1000.71 570.416C1009.69 558.274 1018.35 544.841 1031.97 538.337C1046.6 531.358 1063.83 533.854 1079.73 530.661C1086.68 529.241 1093.36 526.712 1099.51 523.172C1102.03 518.462 1104.4 513.662 1106.63 508.771C1105.95 509.179 1105.25 509.569 1104.56 509.96C1093.06 516.26 1079.8 518.519 1066.74 518.995L1066.67 519.045Z" fill="#92E3A9"/>
<path d="M1205.03 402.895C1205.03 408.669 1203.95 413.798 1196.88 415.037C1204.12 415.343 1204.62 420.132 1205.03 426.823C1205.27 420.183 1205.9 415.343 1212.45 415.037C1205.69 413.916 1205.03 408.669 1205.03 402.895Z" fill="#92E3A9"/>
<path d="M1040.2 710.289C1040.2 716.063 1039.12 721.191 1032.05 722.431C1039.29 722.737 1039.8 727.526 1040.2 734.217C1040.44 727.56 1041.07 722.737 1047.62 722.431C1040.83 721.293 1040.2 716.063 1040.2 710.289Z" fill="#92E3A9"/>
<path d="M987.1 532.384C987.1 534.914 986.625 537.139 983.534 537.682C986.693 537.818 986.931 539.941 987.1 542.777C987.202 539.873 987.474 537.682 990.344 537.682C987.372 537.19 987.1 534.914 987.1 532.384Z" fill="#92E3A9"/>
<path d="M973.209 542.318C973.209 548.075 972.105 553.204 965.058 554.444C972.292 554.749 972.802 559.538 973.209 566.246C973.43 559.589 974.058 554.766 980.63 554.444C973.838 553.408 973.209 548.075 973.209 542.318Z" fill="#E0E0E0"/>
<path d="M966.586 513.381C966.586 516.353 966.026 518.968 962.409 519.613C966.111 519.766 966.382 522.246 966.586 525.659C966.705 522.263 967.028 519.766 970.407 519.613C966.909 519.036 966.586 516.353 966.586 513.381Z" fill="#E0E0E0"/>
<path d="M1185.42 385.539C1185.42 388.936 1185.33 392.162 1180.46 392.927C1185.55 392.927 1185.21 396.102 1185.47 400.178C1185.6 396.102 1185.96 393.181 1189.99 392.994C1185.83 392.298 1185.94 390.379 1185.42 385.539Z" fill="#E0E0E0"/>
<path d="M1227.77 542.709C1227.41 549.077 1226.91 551.828 1221.15 552.593C1227.01 552.915 1227.5 556.804 1227.84 562.221C1228.03 556.804 1228.5 552.864 1233.85 552.593C1228.35 551.71 1228.21 549.162 1227.77 542.709Z" fill="#E0E0E0"/>
<path d="M1016.8 710.34C1016.6 714.059 1016.31 715.655 1012.95 716.114C1016.34 716.301 1016.65 718.542 1016.85 721.701C1016.96 718.542 1017.23 716.25 1020.35 716.114C1017.19 715.57 1017.06 714.11 1016.8 710.34Z" fill="#E0E0E0"/>
<path d="M1215.75 396.985C1215.75 399.04 1215.75 401.01 1212.74 401.469C1215.87 401.469 1215.63 403.388 1215.78 405.85C1215.87 403.388 1216.07 401.621 1218.5 401.502C1215.99 401.078 1216.05 399.923 1215.75 396.985Z" fill="#E0E0E0"/>
<path d="M1222.15 561.22C1222.15 563.257 1222.15 565.227 1219.14 565.686C1222.25 565.686 1222.01 567.622 1222.17 570.084C1222.25 567.622 1222.47 565.839 1224.9 565.737C1222.39 565.295 1222.46 564.141 1222.15 561.22Z" fill="#E0E0E0"/>
<path d="M1032.48 702.239C1032.48 704.277 1032.48 706.247 1029.47 706.706C1032.6 706.706 1032.36 708.625 1032.51 711.087C1032.6 708.625 1032.82 706.859 1035.24 706.74C1032.77 706.332 1032.83 705.16 1032.48 702.239Z" fill="#E0E0E0"/>
<path d="M1459.62 657.532L1513.09 626.658L1593.83 673.257L1632.56 650.892L1551.85 604.293L1578.07 589.145L1535.61 564.605L1509.39 579.753L1462.59 552.769L1423.83 575.151L1470.59 602.204L1370.88 659.671L1402.08 677.673L1653.72 745.227L1658.61 742.408C1661.01 732.763 1663 722.919 1664.57 712.877L1459.62 657.532Z" fill="#263238"/>
<path d="M1464.64 420.648L1462.64 421.803V356.557L1438.42 342.581L1408.46 359.869L1433.17 266.976L1408.97 253L1367.32 277.047L1300 528.756V564.843L1324.2 578.819L1399.75 535.175V561.175L1423.97 575.151L1462.59 552.769V498.834L1488.79 483.702V434.624L1464.64 420.648ZM1399.75 458.161L1379.26 470.049L1399.75 392.916V458.161Z" fill="#92E3A9"/>
<path opacity="0.3" d="M1464.64 420.648L1462.64 421.803V356.557L1438.42 342.581L1408.46 359.869L1433.17 266.976L1408.97 253L1367.32 277.047L1300 528.756V564.843L1324.2 578.819L1399.75 535.175V561.175L1423.97 575.151L1462.59 552.769V498.834L1488.79 483.702V434.624L1464.64 420.648ZM1399.75 458.161L1379.26 470.049L1399.75 392.916V458.161Z" fill="black"/>
<path d="M1462.62 449.755V356.557L1423.88 378.923V472.138L1370.39 503.011L1433.17 266.976L1391.52 291.023L1324.2 542.732V578.752L1423.88 521.216V575.151L1462.62 552.769V498.834L1488.84 483.702V434.624L1462.62 449.755Z" fill="#92E3A9"/>
<path opacity="0.3" d="M1462.62 449.755V356.557L1423.88 378.923V472.138L1370.39 503.011L1433.17 266.976L1391.52 291.023L1324.2 542.732V578.752L1423.88 521.216V575.151L1462.62 552.769V498.834L1488.84 483.702V434.624L1462.62 449.755Z" fill="white"/>
<path d="M1433.17 266.976L1408.97 253L1367.32 277.047L1391.52 291.023L1433.17 266.976Z" fill="#92E3A9"/>
<path opacity="0.5" d="M1433.17 266.976L1408.97 253L1367.32 277.047L1391.52 291.023L1433.17 266.976Z" fill="white"/>
<path d="M1438.42 342.581L1462.62 356.557L1423.88 378.923L1406.12 368.665L1408.47 359.869L1438.42 342.581Z" fill="#92E3A9"/>
<path opacity="0.5" d="M1438.42 342.581L1462.62 356.557L1423.88 378.923L1406.12 368.665L1408.47 359.869L1438.42 342.581Z" fill="white"/>
<path d="M1423.88 472.138L1399.67 458.161L1379.17 469.998L1370.39 503.011L1423.88 472.138Z" fill="#92E3A9"/>
<path opacity="0.5" d="M1423.88 472.138L1399.67 458.161L1379.17 469.998L1370.39 503.011L1423.88 472.138Z" fill="white"/>
<path d="M1488.84 434.624L1464.64 420.648L1462.62 421.803V449.755L1488.84 434.624Z" fill="#92E3A9"/>
<path opacity="0.5" d="M1462.62 449.755L1488.84 434.624L1464.64 420.648L1462.62 421.803V449.755Z" fill="white"/>
<path d="M1324.2 542.732L1300 528.756L1367.32 277.047L1391.52 291.023L1324.2 542.732Z" fill="#92E3A9"/>
<path opacity="0.15" d="M1324.2 542.732L1300 528.756L1367.32 277.047L1391.52 291.023L1324.2 542.732Z" fill="black"/>
<path d="M1024.07 874.162L981.559 849.622L955.356 864.753L908.638 837.786L869.885 860.151L916.603 887.119L816.917 944.671L848.114 962.689L1099.77 1030.24L1141.43 1006.2L905.615 942.549L959.109 911.658L1039.83 958.274L1078.58 935.892L997.845 889.293L1024.07 874.162Z" fill="#263238"/>
<path d="M910.642 705.648L908.638 706.819V641.506L884.421 627.53L854.465 644.902L879.174 552.01L854.974 538.034L813.317 562.047L746 813.773V849.792L770.267 863.768L845.753 820.192V846.175L869.953 860.151L908.706 837.786V783.833L934.909 768.702V719.624L910.642 705.648ZM845.685 743.161L825.188 755.049L845.685 677.984V743.161Z" fill="#92E3A9"/>
<path opacity="0.3" d="M910.642 705.648L908.638 706.819V641.506L884.421 627.53L854.465 644.902L879.174 552.01L854.974 538.034L813.317 562.047L746 813.773V849.792L770.267 863.768L845.753 820.192V846.175L869.953 860.151L908.706 837.786V783.833L934.909 768.702V719.624L910.642 705.648ZM845.685 743.161L825.188 755.049L845.685 677.984V743.161Z" fill="black"/>
<path d="M908.638 734.772V641.557L869.885 663.923V757.138L816.391 788.011L879.191 551.976L837.534 576.023L770.199 827.732V863.768L869.885 806.216V860.151L908.638 837.786V783.833L934.841 768.702V719.624L908.638 734.772Z" fill="#92E3A9"/>
<path opacity="0.3" d="M908.638 734.772V641.557L869.885 663.923V757.138L816.391 788.011L879.191 551.976L837.534 576.023L770.199 827.732V863.768L869.885 806.216V860.151L908.638 837.786V783.833L934.841 768.702V719.624L908.638 734.772Z" fill="white"/>
<path d="M879.191 551.976L854.974 538L813.317 562.047L837.534 576.023L879.191 551.976Z" fill="#92E3A9"/>
<path opacity="0.5" d="M879.191 551.976L854.974 538L813.317 562.047L837.534 576.023L879.191 551.976Z" fill="white"/>
<path d="M884.422 627.581L908.638 641.557L869.885 663.923L852.121 653.682L854.465 644.886L884.422 627.581Z" fill="#92E3A9"/>
<path opacity="0.5" d="M884.422 627.581L908.638 641.557L869.885 663.923L852.121 653.682L854.465 644.886L884.422 627.581Z" fill="white"/>
<path d="M869.885 757.138L845.685 743.161L825.188 754.998L816.391 788.011L869.885 757.138Z" fill="#92E3A9"/>
<path opacity="0.5" d="M869.885 757.138L845.685 743.161L825.188 754.998L816.391 788.011L869.885 757.138Z" fill="white"/>
<path d="M934.842 719.624L910.642 705.648L908.638 706.819V734.772L934.842 719.624Z" fill="#92E3A9"/>
<path opacity="0.5" d="M908.638 734.772L934.842 719.624L910.642 705.648L908.638 706.819V734.772Z" fill="white"/>
<path d="M770.199 827.732L746 813.773L813.317 562.047L837.534 576.023L770.199 827.732Z" fill="#92E3A9"/>
<path opacity="0.15" d="M770.199 827.732L746 813.773L813.317 562.047L837.534 576.023L770.199 827.732Z" fill="black"/>
<path d="M1254.23 760.943C1246.92 757.731 1239.2 755.503 1231.26 754.324C1226.41 753.548 1221.45 753.59 1216.61 754.447C1213.17 755.126 1209.83 756.242 1206.69 757.766C1195.92 762.92 1194.37 768.657 1194.02 773.511C1193.67 778.365 1196.45 784.861 1205.35 790.862L1358.09 894C1385.89 879.723 1411.73 862.146 1435 841.681C1368.64 811.956 1260.34 763.467 1254.23 760.943Z" fill="#263238"/>
<path d="M1303.1 543.882C1312.48 545.647 1316.14 546.265 1320.62 553.749C1325.11 561.233 1332.73 589.052 1334.82 594.824C1336.9 600.596 1337.53 602.697 1336.65 609.122C1335.75 615.83 1331.65 627.744 1329.93 634.275C1329.12 637.294 1328.59 640.242 1328 643.331C1327.19 646.492 1326.15 649.595 1324.89 652.615C1324.35 654.088 1323.41 655.393 1322.16 656.393C1321.39 657.046 1320.33 657.117 1319.6 657.717C1318.87 658.317 1318.67 659.376 1317.64 659.87C1316.61 660.364 1315.19 660.082 1314.18 660.647C1313.19 661.349 1312.15 661.997 1311.08 662.588C1310.1 662.864 1309.2 663.367 1308.47 664.054C1307.81 664.742 1307.18 666.295 1305.99 666.172C1304.8 666.048 1304.46 664.813 1304.4 663.753C1304.44 661.675 1305.17 659.665 1306.49 658.017C1307.66 656.182 1308.93 654.413 1310.32 652.721C1311.66 651.152 1312.62 649.312 1313.14 647.338C1313.56 646.014 1313.43 644.337 1311.65 645.096C1309.58 646.014 1307.39 647.92 1304.9 647.496C1303.17 647.214 1303.06 645.908 1304.07 644.813C1305.73 643.01 1307.24 641.092 1308.61 639.077C1310 637.011 1311.16 634.84 1312.6 632.828C1313.39 631.782 1314.24 630.786 1315.15 629.845C1317.68 627.197 1317.57 623.579 1317.86 620.207C1318.26 615.53 1318.61 603.526 1318.61 603.526L1307.26 576.573L1303.1 543.882Z" fill="#FFBDA7"/>
<path d="M1317.88 620.207C1317.99 614.647 1318.23 609.087 1318.45 603.526C1314.78 594.948 1310.86 585.504 1307.28 576.573C1311.23 585.504 1315.08 594.477 1318.81 603.491C1318.52 609.069 1318.26 614.647 1317.88 620.207V620.207Z" fill="white"/>
<path d="M1239.8 753.211C1243.02 752.117 1245.42 752.011 1245.38 753.547C1244.95 755.439 1244.25 757.268 1243.31 758.983L1240.75 762.39L1239.52 765.744C1239.52 765.744 1238.02 767.509 1237.93 767.686C1237.84 767.862 1237.34 761.419 1237.34 761.419C1237.34 761.419 1235.53 754.006 1239.8 753.211Z" fill="#263238"/>
<path d="M1274.41 622.166C1274.41 622.166 1267.08 630.551 1262.74 646.261C1258.74 660.861 1255.68 675.688 1253.59 690.654C1252.54 697.344 1250.86 705.782 1248.37 718.897C1246.44 728.994 1240.4 759.954 1240.4 759.954C1240.4 759.954 1243.88 765.532 1248.09 767.227C1254.13 769.663 1259.96 768.551 1260.73 763.343C1260.73 763.343 1264.72 757.201 1270.78 741.35C1273.69 734.073 1276.02 726.59 1277.74 718.967C1278.34 714.183 1278.52 709.359 1278.27 704.546L1302.59 663.789C1305.28 659.324 1308.5 655.177 1312.18 651.433C1314.46 649.185 1316.25 646.52 1317.44 643.595C1321.47 633.005 1315.61 618.76 1315.61 618.76L1274.41 622.166Z" fill="#263238"/>
<path d="M1253.68 690.637C1249.76 713.849 1245.27 736.972 1240.49 760.025C1244.7 736.866 1249.21 713.76 1253.68 690.637Z" fill="white"/>
<path d="M1244.19 777.871L1242.89 777.624C1242.98 777.147 1252.72 728.817 1259.54 708.518C1266.35 688.219 1284.2 647.902 1284.39 647.496L1285.61 648.008C1285.43 648.397 1267.61 688.695 1260.82 708.924C1254.02 729.152 1244.3 777.394 1244.19 777.871Z" fill="black"/>
<path d="M1306.41 635.741H1266.48C1265.02 639.159 1263.79 642.668 1262.81 646.243C1259.12 659.686 1256.28 673.332 1254.3 687.107C1255.27 693.408 1256.37 699.886 1257.38 704.334C1260.07 716.09 1261.75 724.387 1263.88 729.241C1265.93 733.344 1268.35 737.266 1271.11 740.961C1273.95 733.832 1276.22 726.503 1277.9 719.038C1278.5 714.254 1278.68 709.43 1278.43 704.617L1302.24 664.813L1303.94 658.546C1309.86 649.067 1309.18 641.954 1306.41 635.741Z" fill="black"/>
<path d="M1207.06 768.868C1206.34 768.551 1205.46 771.251 1205.39 772.222C1205.32 773.193 1207.22 777.147 1212.22 780.059C1217.22 782.972 1225.81 784.596 1229.03 785.567C1232.25 786.538 1234.83 789.097 1239.08 791.092C1242.85 792.857 1248.55 793.792 1251.04 792.716C1251.52 792.439 1251.93 792.066 1252.25 791.621C1252.57 791.176 1252.78 790.67 1252.87 790.138C1253.55 788.144 1253.49 787.685 1253.24 787.614L1207.06 768.868Z" fill="#37474F"/>
<path d="M1255.01 783.201C1254.69 785.24 1253.98 787.206 1252.94 789.009C1252.22 789.537 1251.39 789.92 1250.5 790.135C1249.62 790.351 1248.7 790.394 1247.8 790.262C1243.92 789.994 1240.19 788.739 1236.98 786.626C1234.53 785.088 1231.88 783.86 1229.1 782.972C1225.28 782.084 1221.53 780.94 1217.88 779.548C1215.15 778.437 1212.61 776.938 1210.35 775.099C1208.52 773.44 1206.82 771.569 1207 769.239C1207.41 767.772 1208.28 766.464 1209.5 765.494C1210.71 764.523 1212.2 763.939 1213.78 763.82C1216.78 763.673 1219.79 764.111 1222.62 765.109C1225.37 766.005 1228.21 766.597 1231.1 766.874C1233.08 767.033 1235.4 768.639 1236.94 766.962C1238.77 765.02 1239.49 760.431 1240.71 758.136C1240.91 757.766 1241.19 757.36 1241.61 757.271C1242.03 757.183 1242.73 757.677 1243.11 758.172C1244.9 760.329 1247.2 762.046 1249.81 763.185C1256.88 766.556 1260.16 764.773 1260.16 764.773L1260.82 763.361C1260.82 763.361 1262.23 764.12 1260.43 767.297C1258.92 769.91 1257.65 772.644 1256.63 775.47C1255.73 777.967 1255.19 780.567 1255.01 783.201V783.201Z" fill="#455A64"/>
<path d="M1207.06 769.239C1209.27 761.331 1218.57 763.449 1224.58 765.444C1226.71 766.167 1228.91 766.658 1231.15 766.909C1228.89 766.811 1226.65 766.425 1224.49 765.762C1218.56 763.997 1209.64 761.737 1207.06 769.292V769.239Z" fill="white"/>
<path d="M1223.94 765.462C1220.92 765.726 1220.09 770.439 1220.09 770.439C1222.8 771.841 1225.75 772.761 1228.79 773.158C1230.91 773.511 1233.09 773.09 1234.9 771.977C1236.71 770.863 1238.03 769.138 1238.59 767.138C1239.87 763.202 1238.7 757.695 1238.46 755.912C1238.32 755.3 1238.43 754.659 1238.78 754.126C1239.12 753.592 1239.66 753.207 1240.29 753.053C1239.77 753.099 1239.27 753.248 1238.81 753.49C1238.36 753.732 1237.96 754.063 1237.64 754.46C1237.32 754.857 1237.09 755.314 1236.97 755.8C1236.84 756.287 1236.82 756.794 1236.9 757.289C1236.99 759.407 1236.9 763.591 1235.97 764.985C1235.04 766.379 1230.37 766.997 1223.94 765.462Z" fill="#455A64"/>
<path d="M1299.64 622.167C1304.04 627.177 1306.61 633.44 1306.96 639.995C1307.27 646.362 1305.19 652.623 1301.12 657.646C1299.6 679.11 1295.21 720.433 1295.21 720.433C1301.09 726.258 1302.53 730.035 1306.01 740.485C1308.08 746.839 1315.85 767.262 1317.77 772.946C1307.48 774.164 1301.87 784.031 1301.87 784.031C1301.87 784.031 1283.75 758.225 1275.03 743.044C1268.56 731.818 1265.58 727.723 1263.66 721.086C1261.28 712.807 1260.64 708.536 1258.51 694.608C1256.39 680.681 1254.35 662.959 1253.31 649.226C1252.27 635.493 1251.48 620.984 1251.48 620.984L1299.64 622.167Z" fill="#263238"/>
<path d="M1301.95 783.978C1291.38 768.974 1281.02 753.794 1271.93 737.908C1268.95 733.275 1266.38 728.403 1264.26 723.345C1262.57 718.148 1261.27 712.838 1260.38 707.459C1255.71 678.78 1252.75 649.866 1251.52 620.86L1253.05 642.572C1254.45 664.301 1257.25 685.924 1260.84 707.388C1262.14 714.449 1263.49 721.739 1266.83 728.234C1277.51 747.406 1289.24 766.024 1301.95 784.013V783.978Z" fill="white"/>
<path d="M1276.33 727.122C1271 714.025 1264.61 642.731 1264.94 618.089H1263.6C1263.49 626.332 1264.13 639.765 1265.23 654.504C1260.89 652.386 1258.09 648.503 1258.09 628.98H1256.75C1256.75 648.608 1259.41 653.357 1265.34 655.987C1267.58 685.182 1271.57 718.95 1275.08 727.617C1280.3 740.432 1307.53 783.731 1307.79 784.102L1308.94 783.431C1308.67 783.042 1281.51 739.849 1276.33 727.122Z" fill="black"/>
<path d="M1300.45 781.789C1298.82 784.013 1296.97 785.584 1301.6 788.55C1305.26 790.827 1305.39 792.663 1306.51 795.099C1307.23 797.474 1307.53 799.952 1307.39 802.424C1307.39 802.424 1313.54 793.475 1311.74 787.703C1309.95 781.931 1300.45 781.789 1300.45 781.789Z" fill="#455A64"/>
<path d="M1320.17 776.67C1321.9 778.433 1323.94 779.89 1326.19 780.977C1327.75 781.913 1329.36 782.742 1329.85 784.508C1329.85 784.702 1328.94 785.761 1328.96 785.955C1329.04 786.797 1329.01 787.645 1328.86 788.479C1328.52 791.392 1326.87 793.545 1326.5 796.44C1326.38 797.596 1326.17 798.741 1325.86 799.864C1325.6 801.232 1325.48 802.622 1325.51 804.013C1325.42 805.46 1325.31 806.907 1325.24 808.355C1325.16 808.97 1325.16 809.593 1325.24 810.208C1325.37 810.826 1315.15 815.786 1311.03 817.692C1310.79 817.806 1310.53 817.906 1310.28 817.993C1307.76 818.652 1305.09 818.401 1302.75 817.286C1294.55 814.409 1295.06 811.55 1295.06 811.55C1295.1 810.365 1295.49 809.217 1296.18 808.236C1296.87 807.255 1297.84 806.482 1298.96 806.007C1299.46 805.727 1299.99 805.496 1300.54 805.319V805.319C1302.58 804.588 1304.8 804.483 1306.91 805.019C1307.32 803.844 1307.52 802.606 1307.48 801.365C1307.64 799.51 1307.68 797.646 1307.57 795.787C1307.2 793.687 1306.36 791.691 1305.1 789.944C1303.36 787.632 1301.43 784.649 1300.28 783.025C1299.13 781.401 1298.82 777.482 1305.65 772.769C1312.2 768.268 1317 769.239 1317.93 771.092C1318.45 773.028 1319.2 774.9 1320.17 776.67V776.67Z" fill="#455A64"/>
<path d="M1294.95 811.567C1294.95 806.113 1302.17 803.377 1306.87 804.983C1302.06 804.119 1295.65 806.272 1294.95 811.567Z" fill="white"/>
<path opacity="0.1" d="M1302.53 807.843C1303.08 806.497 1304.11 805.387 1305.44 804.719C1305.93 804.772 1306.4 804.861 1306.87 804.983C1306.05 805.742 1303.1 806.872 1302.53 807.843Z" fill="black"/>
<path d="M1330.81 786.22C1332.64 786.961 1331.12 789.75 1328.97 794.075C1327.04 797.271 1326.27 800.998 1326.78 804.666C1327.22 808.496 1326.28 810.367 1324.56 811.726C1322.84 813.085 1310.06 818.469 1310.06 818.469C1313.1 814.769 1314.86 810.245 1315.09 805.531C1315.79 797.093 1316.63 791.674 1320.99 787.985C1322.35 786.928 1323.95 786.213 1325.67 785.905C1327.38 785.597 1329.15 785.705 1330.81 786.22V786.22Z" fill="black"/>
<path d="M1294.95 811.55C1295.15 813.209 1300.04 816.563 1305.81 816.492C1311.58 816.422 1312.07 815.239 1312.97 808.726C1313.87 802.212 1314.49 793.157 1317.42 789.309C1320.35 785.461 1324.2 783.131 1329.82 784.543C1330.46 784.843 1332.2 786.52 1331.56 788.073C1331.56 788.073 1331.56 786.838 1329.25 786.185C1327.27 785.637 1324.91 785.69 1321.61 788.444C1317.75 791.639 1316.89 799.176 1316.45 805.637C1316.01 812.097 1313.92 818.293 1308.37 818.875C1305.98 819.188 1303.54 818.993 1301.23 818.304C1298.92 817.615 1296.8 816.448 1295.01 814.886C1294.66 813.802 1294.64 812.644 1294.95 811.55Z" fill="#37474F"/>
<path d="M1261.88 503.354C1261.13 502.34 1260.67 501.155 1260.54 499.917C1260.42 498.679 1260.62 497.43 1261.15 496.293C1262.08 493.999 1264.02 491.581 1269.68 488.756C1276.42 485.402 1294.92 483.002 1304.07 494.67C1305.39 496.435 1287.19 529.355 1288.08 536.186C1283.36 531.402 1267.78 514.58 1267.78 514.58C1264.11 513.062 1261.84 511.774 1261.06 508.42C1260.77 506.69 1261.06 504.917 1261.88 503.354Z" fill="#263238"/>
<path d="M1267.78 514.492C1262.28 513.098 1258.79 508.455 1261.88 503.301C1259.54 508.597 1262.67 512.445 1267.78 514.492Z" fill="white"/>
<path d="M1261.88 503.354C1259.57 500.918 1260.14 497 1261.88 494.387C1263.9 491.852 1266.6 489.894 1269.68 488.721C1268.27 489.502 1266.92 490.362 1265.62 491.298C1261.79 493.858 1258.93 499.241 1261.95 503.354H1261.88Z" fill="white"/>
<path d="M1264.66 512.727C1264.66 512.727 1259.67 520.582 1260.23 521.235C1261.38 522.116 1262.61 522.902 1263.9 523.583L1264.66 512.727Z" fill="#F0997A"/>
<path d="M1264.66 512.727C1263.42 515.251 1261.92 517.634 1260.69 520.141C1260.53 520.547 1260.18 521.023 1260.42 521.306C1260.73 521.655 1261.1 521.953 1261.51 522.188C1261.02 521.923 1260.2 521.712 1260.09 521.076C1261.09 518.057 1262.64 515.231 1264.66 512.727Z" fill="white"/>
<path d="M1270.85 498.359C1267.5 499.894 1264.61 502.366 1263.53 509.444C1263.25 511.297 1264.76 513.821 1264.08 516.275C1261.17 526.866 1264.63 535.692 1266.75 537.545C1268.18 538.851 1275.69 539.434 1279.57 538.375C1284.5 537.051 1295.21 532.391 1300.32 524.96C1306.32 516.134 1307.64 504.484 1301.03 499.771C1291.71 493.134 1274.42 496.735 1270.85 498.359Z" fill="#FFBDA7"/>
<path d="M1263.57 509.444C1263.57 511.844 1265.03 514.192 1264.19 516.646C1262.63 523.477 1262.52 531.597 1266.79 537.545C1262.1 531.791 1262.1 523.424 1263.9 516.575C1264.74 514.245 1263.35 511.862 1263.57 509.514V509.444Z" fill="white"/>
<path d="M1296.47 529.955L1298.41 542.964C1301.43 543.582 1301.71 547.024 1300.24 549.619L1300.96 553.29L1280.3 556.856L1277.99 538.657L1296.47 529.955Z" fill="#FFBDA7"/>
<path d="M1267.19 537.81C1269.02 538.745 1272.78 539.434 1278.01 538.728L1277.7 536.151C1276.04 536.752 1274.33 537.224 1272.59 537.563C1270.82 537.902 1268.99 537.986 1267.19 537.81V537.81Z" fill="#F0997A"/>
<path d="M1265.91 502.136C1265.77 503.663 1266.18 505.19 1267.08 506.455C1267.98 507.72 1269.31 508.646 1270.84 509.073C1270.02 510.764 1269.71 512.642 1269.96 514.492C1270.02 515.585 1270.42 516.636 1271.08 517.521C1271.75 518.406 1272.67 519.089 1273.73 519.488C1275.17 519.964 1275.56 519.346 1276.13 518.234C1276.86 516.663 1277.79 514.263 1281.29 514.704C1285.3 515.233 1286.36 521.059 1284.02 524.871C1283.57 525.677 1282.92 526.365 1282.13 526.876C1281.35 527.386 1280.44 527.704 1279.5 527.801C1278.98 527.794 1278.46 527.68 1277.99 527.467C1277.52 527.254 1277.11 526.947 1276.77 526.566C1276.77 526.566 1277.02 531.649 1283.82 534.668C1288.07 536.847 1292.99 537.473 1297.68 536.433C1300.84 533.052 1303.81 529.517 1306.6 525.842C1313.92 515.534 1315.48 496.664 1302.94 493.275C1302.33 493.116 1290.92 491.51 1285.36 492.745C1268.2 496.276 1265.95 501.342 1265.91 502.136Z" fill="#263238"/>
<path d="M1296.87 491.951C1295.36 493.004 1294.32 494.577 1293.96 496.346C1293.81 497.229 1293.89 498.135 1294.21 498.975C1294.54 499.814 1295.08 500.558 1295.79 501.13C1299.46 503.901 1305.17 500.671 1305.85 496.576C1306.62 491.739 1300.57 489.303 1296.87 491.951Z" fill="#92E3A9"/>
<path d="M1299.86 493.487C1296.11 495.711 1293.76 500.954 1295.76 504.731C1296.31 505.755 1297.08 506.673 1297.59 507.749C1299.04 511.191 1296.93 514.987 1296.47 518.676C1296.16 521.604 1296.68 524.559 1297.99 527.219C1299.24 529.178 1301.98 529.673 1303.08 531.72C1303.83 533.132 1303.32 534.862 1303.61 536.433C1304.25 539.805 1308.39 541.429 1311.96 541.499C1313.47 541.628 1314.99 541.435 1316.42 540.935C1317.84 540.435 1319.13 539.639 1320.2 538.604C1321.02 537.378 1321.92 536.2 1322.88 535.074C1325 533.15 1328.37 533.309 1330.71 531.544C1331.58 530.806 1332.26 529.886 1332.7 528.854C1333.14 527.822 1333.32 526.707 1333.24 525.595C1333.03 523.367 1332.41 521.192 1331.41 519.17C1329.89 515.64 1331.1 513.363 1331.87 509.779C1332.23 507.844 1331.9 505.848 1330.92 504.119C1329.95 502.39 1328.4 501.031 1326.52 500.265C1323.94 499.277 1320.79 499.436 1318.7 497.653C1317.71 496.523 1316.78 495.345 1315.92 494.122C1312 489.974 1304.27 490.892 1299.86 493.487Z" fill="#263238"/>
<path d="M1314.6 553.608C1313.78 551.45 1312.47 549.493 1310.78 547.874C1309.09 546.254 1307.05 545.012 1304.8 544.235C1302.97 543.705 1298.41 542.964 1298.41 542.964C1299.46 545.259 1297.7 546.777 1294.6 547.465C1290.63 548.365 1284.57 548.454 1280.45 545.824L1278.76 544.818C1274.27 545.883 1269.83 547.167 1265.47 548.666C1264.57 549.072 1259.61 550.678 1251.81 567.57C1248.48 574.79 1249.47 582.115 1255.6 587.322C1255.95 591.894 1252.89 602.185 1252.89 602.185C1251.33 610.773 1250.98 619.524 1251.83 628.203C1251.83 628.203 1255.49 637.559 1284.53 637.453C1307 637.453 1318.3 626.862 1318.3 626.862C1318.02 621.566 1309.38 602.979 1310.24 596.731C1311.58 587.622 1320.24 571.295 1314.6 553.608Z" fill="#92E3A9"/>
<path d="M1265.47 548.665C1271.38 553.308 1271.84 559.68 1270.96 568.276C1270.08 576.873 1261.13 603.738 1259.3 609.581C1257.47 615.423 1254.85 617.453 1250.23 622.184C1245.62 626.915 1234.83 634.434 1229.47 638.741C1226.98 640.736 1224.76 642.819 1222.4 644.99C1219.82 647.088 1217.09 649.011 1214.23 650.744C1212.9 651.625 1211.34 652.149 1209.73 652.262C1208.7 652.262 1207.81 651.803 1206.84 651.874C1205.87 651.944 1205 652.686 1203.94 652.509C1202.88 652.333 1201.82 651.291 1200.66 651.168C1199.44 651.184 1198.22 651.131 1197 651.009C1196.04 650.664 1195 650.561 1193.98 650.709C1193.03 650.885 1191.58 651.786 1190.68 651.027C1189.79 650.268 1190.28 649.05 1190.87 648.149C1192.16 646.465 1193.99 645.227 1196.07 644.619C1198.13 643.798 1200.24 643.097 1202.39 642.519C1204.41 641.996 1206.28 641.05 1207.88 639.747C1209.01 638.918 1209.93 637.47 1208.04 637.1C1205.81 636.658 1202.86 636.958 1201.09 635.211C1199.88 634.011 1200.59 632.899 1202.07 632.581C1204.51 632.062 1206.91 631.365 1209.23 630.498C1211.62 629.615 1213.87 628.503 1216.27 627.691C1217.55 627.293 1218.85 626.969 1220.17 626.72C1223.83 625.997 1225.93 623.014 1228.21 620.454C1231.39 616.924 1236.87 610.181 1240.58 605.344L1246.21 579.132C1249.76 564.905 1251 552.972 1265.47 548.665Z" fill="#FFBDA7"/>
<path d="M1270.93 568.277C1269.5 576.043 1267.53 583.709 1265.05 591.224C1264.87 591.841 1264.66 592.441 1264.48 592.989C1262.23 600.349 1260.05 606.986 1259.24 609.563C1257.6 614.859 1255.27 617.048 1251.41 620.931L1250.18 622.167C1245.36 627.091 1234.78 634.417 1229.41 638.741C1226.94 640.736 1224.71 642.801 1222.36 644.972C1219.78 647.076 1217.04 649.005 1214.18 650.744C1212.84 651.619 1211.29 652.137 1209.67 652.245C1208.65 652.333 1207.75 651.786 1206.78 651.857C1205.81 651.927 1204.95 652.668 1203.89 652.492C1202.83 652.315 1201.76 651.274 1200.61 651.168C1199.39 651.179 1198.16 651.12 1196.95 650.992C1195.98 650.655 1194.94 650.552 1193.93 650.692C1193.63 650.692 1193.28 650.886 1192.92 651.009L1192.46 651.15C1192.25 651.224 1192.04 651.272 1191.82 651.292C1191.62 651.331 1191.4 651.326 1191.2 651.278C1191 651.229 1190.81 651.137 1190.65 651.009C1189.64 650.162 1190.23 649.05 1190.81 648.15C1192.11 646.464 1193.93 645.226 1196.01 644.619C1198.07 643.793 1200.18 643.085 1202.33 642.501C1204.35 641.978 1206.23 641.032 1207.82 639.73C1208.96 638.9 1209.88 637.471 1207.99 637.082C1205.76 636.641 1202.81 636.941 1201.05 635.211C1199.82 633.993 1200.54 632.881 1202.02 632.563C1204.46 632.047 1206.85 631.35 1209.18 630.48C1211.56 629.598 1213.83 628.486 1216.21 627.692C1217.49 627.281 1218.79 626.957 1220.11 626.721C1223.77 625.997 1225.88 622.996 1228.15 620.454C1231.34 616.924 1236.81 610.164 1240.55 605.327L1246.15 579.115C1249.7 564.817 1251 552.884 1265.41 548.595C1266.9 549.757 1268.15 551.183 1269.08 552.796C1271.53 556.962 1271.59 562.028 1270.93 568.277Z" fill="#FFBDA7"/>
<path d="M1190.57 651.027C1190.23 650.693 1190.03 650.251 1190 649.783C1189.98 649.315 1190.13 648.853 1190.43 648.485C1191.8 645.926 1194.79 644.831 1197.42 643.966C1199.18 643.172 1201.02 642.58 1202.92 642.201C1204.72 641.665 1206.41 640.835 1207.92 639.748C1206.49 640.982 1204.82 641.93 1203.01 642.537C1199.35 643.401 1195.84 644.756 1192.57 646.561C1191.36 647.497 1189.26 649.456 1190.65 650.956L1190.57 651.027Z" fill="white"/>
<path d="M1201.09 635.281C1198.82 632.775 1203.21 632.457 1204.86 631.928C1209.22 630.851 1213.06 628.539 1217.35 627.374C1219.54 627.049 1221.65 626.286 1223.52 625.132C1226.5 622.855 1229.71 618.283 1232.18 615.406L1240.42 605.292C1242.25 596.466 1245.16 582.715 1247.34 573.748C1249.67 563.157 1253.24 551.843 1265.47 548.665C1253.42 551.966 1249.9 563.21 1247.67 573.819C1245.47 582.927 1242.84 596.254 1240.77 605.592L1232.45 615.688C1229.91 618.583 1226.78 623.067 1223.68 625.414C1221.79 626.572 1219.66 627.335 1217.44 627.656C1213.15 628.803 1209.25 631.063 1204.89 632.069C1203.23 632.581 1198.87 632.81 1201.09 635.334V635.281Z" fill="white"/>
<path opacity="0.3" d="M1306.87 663.489C1306.87 664.174 1307.07 664.846 1307.44 665.431C1307.82 664.972 1308.15 664.407 1308.48 664.054C1309.22 663.367 1310.12 662.865 1311.1 662.589C1312.17 661.997 1313.2 661.349 1314.2 660.647C1315.19 660.082 1316.5 660.417 1317.66 659.87C1318.81 659.323 1318.85 658.352 1319.62 657.717C1320.39 657.081 1321.45 657.046 1322.18 656.393C1323.43 655.393 1324.37 654.088 1324.91 652.616C1326.17 649.595 1327.21 646.492 1328.02 643.331C1328.61 640.242 1329.14 637.294 1329.95 634.276C1331.67 627.745 1335.77 615.83 1336.67 609.122C1337.53 602.697 1336.9 600.579 1334.83 594.824C1332.77 589.07 1325.13 561.287 1320.64 553.749C1316.39 546.689 1312.86 545.736 1304.51 544.147L1304.02 544.023L1303.17 543.847L1302.51 543.706L1301.67 543.547L1301.18 543.459L1299.97 543.229L1299.05 543.07H1298.82H1298.43L1297.46 536.557H1297.7C1299.18 534.792 1300.81 533.115 1302.51 531.138C1302.72 531.369 1302.9 531.624 1303.05 531.897C1303.81 533.309 1303.28 535.021 1303.58 536.592C1304.22 539.981 1308.36 541.587 1311.93 541.676C1313.44 541.797 1314.96 541.6 1316.38 541.097C1317.8 540.594 1319.1 539.797 1320.17 538.763C1320.99 537.541 1321.88 536.363 1322.84 535.233C1324.96 533.309 1328.33 533.468 1330.7 531.703C1331.56 530.96 1332.24 530.036 1332.67 529.002C1333.11 527.967 1333.29 526.85 1333.2 525.736C1333 523.506 1332.38 521.33 1331.37 519.311C1329.85 515.781 1331.06 513.504 1331.83 509.938C1332.19 508.003 1331.86 506.005 1330.9 504.274C1329.93 502.542 1328.38 501.179 1326.5 500.406C1323.9 499.418 1320.75 499.594 1318.67 497.794C1317.68 496.664 1316.76 495.486 1315.9 494.264C1312.97 491.175 1307.93 490.91 1303.72 492.04C1302.68 491.344 1301.44 490.991 1300.17 491.033C1294.46 486.762 1287 485.738 1280.61 486.232C1278.21 487.206 1276.03 488.641 1274.22 490.451C1268.47 495.941 1265.07 504.007 1266.57 511.633C1266.86 513.063 1267.32 514.439 1267.56 515.869C1268.16 519.523 1267.32 523.248 1267.34 526.954C1267.36 530.661 1268.56 534.756 1271.9 536.574C1274.42 537.934 1277.52 537.669 1280.39 538.022C1285.12 538.604 1284.57 541.411 1284.75 545.277C1284.83 545.868 1284.78 546.47 1284.61 547.042C1284.53 547.248 1284.42 547.44 1284.28 547.607C1283.05 549.072 1279.57 549.654 1278.03 550.148C1274.98 550.86 1272 551.829 1269.13 553.043C1267.81 553.689 1266.67 554.627 1265.8 555.779C1262.3 560.51 1260.82 566.141 1259.34 571.666C1257.96 576.785 1256.52 581.904 1255 586.987C1253.63 591.6 1252.2 596.189 1250.71 600.755C1249.55 604.91 1247.81 608.894 1245.55 612.6C1242.71 616.783 1238.64 620.031 1234.98 623.596C1226.69 631.681 1219.75 642.025 1208.65 645.908C1204.38 647.391 1199.8 647.797 1195.43 648.926C1193.91 649.315 1192.19 650.091 1191.77 651.451C1191.98 651.431 1192.2 651.383 1192.41 651.309L1192.86 651.168C1193.23 651.045 1193.58 650.921 1193.87 650.85C1194.89 650.711 1195.93 650.814 1196.89 651.15C1198.11 651.279 1199.33 651.338 1200.55 651.327C1201.71 651.433 1202.57 652.457 1203.83 652.651C1205.1 652.845 1205.66 652.086 1206.73 652.015C1207.79 651.945 1208.56 652.492 1209.62 652.404C1211.23 652.296 1212.79 651.778 1214.12 650.903C1216.99 649.164 1219.72 647.235 1222.31 645.131C1224.65 642.96 1226.89 640.895 1229.36 638.9C1234.72 634.576 1245.31 627.25 1250.12 622.326L1251.35 621.09C1255.2 617.224 1257.52 615.053 1259.17 609.74C1259.98 607.163 1262.16 600.526 1264.41 593.165L1264.98 591.4C1265.82 592.392 1266.26 593.647 1266.22 594.93C1266.9 603.509 1269.02 612.194 1270.47 620.737C1271.49 626.827 1272.54 632.916 1273.01 639.059C1273.38 643.507 1273.44 647.885 1273.51 652.404L1273.95 684.176C1273.95 685.942 1273.95 687.707 1274.04 689.578C1274.06 694.578 1274.42 699.572 1275.1 704.529C1275.7 708.898 1276.69 713.209 1278.05 717.414C1278.38 718.438 1278.73 719.462 1279.11 720.486C1282.9 730.635 1288.85 739.902 1294.59 749.046C1300.4 758.816 1305.62 768.906 1310.21 779.265C1311.15 781.077 1311.84 783 1312.26 784.984C1312.84 788.409 1311.87 791.886 1311.6 795.346C1311.32 798.805 1311.73 802.124 1311.6 805.513C1311.68 808.924 1310.65 812.273 1308.67 815.098C1307.24 816.876 1305.25 818.168 1303.01 818.787C1304.77 819.082 1306.56 819.136 1308.34 818.946C1309.36 818.855 1310.35 818.528 1311.21 817.993C1315.74 816.15 1320.17 814.076 1324.47 811.779C1326.19 810.455 1327.13 808.567 1326.7 804.719C1326.18 801.053 1326.94 797.322 1328.88 794.128C1330.06 792.187 1330.96 790.103 1331.56 787.932C1332.01 786.432 1330.4 784.878 1329.73 784.578C1329.27 782.813 1327.66 781.966 1326.06 781.048C1323.82 779.961 1321.78 778.503 1320.06 776.741C1319.07 774.964 1318.3 773.08 1317.77 771.128C1317.53 770.699 1317.17 770.348 1316.72 770.122C1313.9 762.302 1307.77 746.045 1305.96 740.52C1302.55 730.053 1301.03 726.275 1295.15 720.45C1295.15 720.45 1298.39 689.948 1300.28 667.761L1302.55 663.93C1302.79 663.524 1303.03 663.136 1303.28 662.748C1305.83 658.752 1308.8 655.025 1312.15 651.627C1312.48 651.292 1312.81 650.903 1313.14 650.533C1312.64 651.327 1312.16 652.121 1311.62 652.898C1309.44 656.111 1306.71 659.553 1306.87 663.489ZM1318.08 627.091L1318.3 626.897C1318.19 625.749 1317.96 624.614 1317.62 623.508C1317.2 622.008 1316.61 620.225 1315.97 618.301C1315.77 617.701 1315.55 617.083 1315.33 616.536C1314.58 614.382 1313.78 612.088 1313.04 609.864C1312.81 609.175 1312.59 608.487 1312.38 607.816C1312.18 607.145 1311.91 606.333 1311.71 605.627C1311.51 604.921 1311.41 604.621 1311.29 604.127C1311.29 603.968 1311.19 603.791 1311.16 603.633C1311.12 603.474 1310.99 602.979 1310.92 602.679C1310.77 602.097 1310.64 601.55 1310.55 601.02L1310.44 600.438C1310.43 600.302 1310.43 600.167 1310.44 600.032C1310.39 599.775 1310.35 599.516 1310.33 599.255V598.725C1310.32 598.408 1310.32 598.09 1310.33 597.772C1310.31 597.467 1310.31 597.16 1310.33 596.854C1310.83 594.114 1311.51 591.408 1312.37 588.752C1312.95 586.705 1313.61 584.516 1314.2 582.186C1315.94 585.31 1317.62 588.435 1319.31 591.577C1320.75 594.061 1321.98 596.659 1322.97 599.343C1324.98 605.451 1324.49 612.07 1323.72 618.442C1322.92 625.711 1321.24 632.866 1318.74 639.765C1319.27 635.535 1319.05 631.248 1318.08 627.091V627.091Z" fill="black"/>
<path d="M97.52 324.24V336.048H127.376C125.072 347.568 116.336 355.344 104.144 355.344C90.032 355.344 79.088 344.208 79.088 329.616C79.088 315.12 89.744 303.888 103.376 303.888C112.208 303.888 121.136 307.536 126.224 318.288L137.936 314.16C132.848 299.376 118.64 291.6 103.376 291.6C82.352 291.6 65.84 308.304 65.84 329.616C65.84 350.928 82.448 367.536 103.76 367.536C125.072 367.536 140.144 351.216 140.144 329.808C140.144 328.272 140.048 326.448 139.856 324.24H97.52ZM173.122 316.656C158.722 316.656 146.818 327.024 146.818 342.096C146.818 357.168 158.722 367.44 173.122 367.44C187.33 367.44 199.234 357.168 199.234 342.096C199.234 327.024 187.33 316.656 173.122 316.656ZM173.122 356.4C165.634 356.4 159.106 351.024 159.106 342.096C159.106 333.168 165.634 327.792 173.122 327.792C180.418 327.792 186.946 333.168 186.946 342.096C186.946 351.024 180.418 356.4 173.122 356.4ZM294.812 293.04H281.756V323.472H245.276V293.04H232.22V366H245.276V335.28H281.756V366H294.812V293.04ZM330.715 316.656C316.315 316.656 304.411 327.024 304.411 342.096C304.411 357.168 316.315 367.44 330.715 367.44C344.923 367.44 356.827 357.168 356.827 342.096C356.827 327.024 344.923 316.656 330.715 316.656ZM330.715 356.4C323.227 356.4 316.699 351.024 316.699 342.096C316.699 333.168 323.227 327.792 330.715 327.792C338.011 327.792 344.539 333.168 344.539 342.096C344.539 351.024 338.011 356.4 330.715 356.4ZM426.662 316.656C418.982 316.656 413.126 319.632 409.19 324.528C405.734 319.44 399.878 316.656 393.446 316.656C387.206 316.656 382.502 318.672 379.142 322.032V318.096H366.47V366H379.142V342.96C379.142 332.88 383.366 328.272 390.086 328.272C395.366 328.272 399.494 332.208 399.494 338.64V366H412.166V342.96C412.166 332.88 416.582 328.272 423.302 328.272C428.582 328.272 432.71 332.208 432.71 338.64V366H445.286V336.048C445.286 324.336 436.646 316.656 426.662 316.656ZM502.717 341.136C502.237 326.544 491.197 316.656 478.429 316.656C464.701 316.656 453.661 327.024 453.661 342.096C453.661 357.168 464.701 367.44 478.237 367.44C488.701 367.44 497.245 362.64 501.469 352.656L490.141 350.256C486.685 356.112 481.981 356.592 478.237 356.592C472.381 356.592 467.485 352.368 466.237 345.456H502.717V341.136ZM478.429 327.696C483.517 327.696 488.125 330.384 489.757 336.528H466.621C468.157 330.576 473.629 327.696 478.429 327.696ZM539.433 378.672L550.281 353.232V352.944H535.689L529.929 378.672H539.433ZM105.776 472.576L136.016 423.04H121.04L99.248 459.136L77.36 423.04H62.96L92.72 472.768V496H105.776V472.576ZM154.653 446.656C140.253 446.656 128.349 457.024 128.349 472.096C128.349 487.168 140.253 497.44 154.653 497.44C168.861 497.44 180.765 487.168 180.765 472.096C180.765 457.024 168.861 446.656 154.653 446.656ZM154.653 486.4C147.165 486.4 140.637 481.024 140.637 472.096C140.637 463.168 147.165 457.792 154.653 457.792C161.949 457.792 168.477 463.168 168.477 472.096C168.477 481.024 161.949 486.4 154.653 486.4ZM236.104 448.096H223.432V469.312C223.432 481.024 218.728 485.824 211.528 485.824C205.672 485.824 201.832 481.312 201.832 474.592V448.096H189.16V477.28C189.16 489.184 196.84 497.44 208.359 497.44C214.696 497.44 219.688 495.424 223.432 491.68V496H236.104V448.096ZM255.708 448.768L266.556 423.328V423.04H251.964L246.204 448.768H255.708ZM305.576 447.424C297.512 447.424 291.944 450.88 288.392 456.448V448.096H275.72V496H288.392V480.544C288.392 467.2 293.768 460 305.48 460H308.264L308.936 447.808C307.784 447.424 306.824 447.424 305.576 447.424ZM361.624 471.136C361.144 456.544 350.104 446.656 337.336 446.656C323.608 446.656 312.568 457.024 312.568 472.096C312.568 487.168 323.608 497.44 337.144 497.44C347.608 497.44 356.152 492.64 360.375 482.656L349.048 480.256C345.592 486.112 340.888 486.592 337.144 486.592C331.288 486.592 326.392 482.368 325.144 475.456H361.624V471.136ZM337.336 457.696C342.424 457.696 347.032 460.384 348.664 466.528H325.528C327.064 460.576 332.536 457.696 337.336 457.696ZM394.595 423.04V496H424.355C447.683 496 463.235 481.408 463.235 459.52C463.235 437.632 447.683 423.04 424.355 423.04H394.595ZM407.651 484.192V434.848H425.219C440.099 434.848 450.083 444.736 450.083 459.52C450.083 474.304 440.099 484.192 425.219 484.192H407.651ZM503.67 447.424C495.606 447.424 490.038 450.88 486.486 456.448V448.096H473.814V496H486.486V480.544C486.486 467.2 491.862 460 503.574 460H506.358L507.03 447.808C505.878 447.424 504.918 447.424 503.67 447.424ZM560.666 448.096H547.994V469.312C547.994 481.024 543.29 485.824 536.09 485.824C530.234 485.824 526.394 481.312 526.394 474.592V448.096H513.722V477.28C513.722 489.184 521.402 497.44 532.922 497.44C539.258 497.44 544.25 495.424 547.994 491.68V496H560.666V448.096ZM601.87 446.656C595.534 446.656 590.542 448.672 586.798 452.416V448.096H574.126V496H586.798V474.784C586.798 463.072 591.502 458.272 598.702 458.272C604.558 458.272 608.398 462.784 608.398 469.504V496H621.07V466.816C621.07 454.912 613.39 446.656 601.87 446.656ZM665.155 496H682.435L657.475 472L680.611 448.096H664.579L645.955 466.912V419.2H633.283V496H645.955V477.856L665.155 496ZM703.27 423.04H689.35V426.4L689.83 472H702.79L703.27 426.4V423.04ZM696.262 481.696C691.846 481.696 688.678 485.152 688.678 489.088C688.678 493.216 691.846 496.384 696.262 496.384C700.678 496.384 703.846 493.216 703.846 489.088C703.846 485.152 700.678 481.696 696.262 481.696Z" fill="white"/>
</g>
<defs>
<clipPath id="clip0_2_2">
<rect width="1728" height="1117" fill="white"/>
</clipPath>
</defs>
</svg>
