<svg width="419" height="405" viewBox="0 0 419 405" fill="none" xmlns="http://www.w3.org/2000/svg">
<path d="M234.36 192.876C235.352 193.248 236.034 193.868 236.406 194.736C236.902 195.604 237.026 196.534 236.778 197.526C236.778 197.526 236.344 198.766 235.476 201.246C234.608 203.726 233.368 206.95 231.756 210.918C230.268 214.762 228.47 219.226 226.362 224.31C224.254 229.27 221.898 234.354 219.294 239.562C213.218 251.838 207.142 261.634 201.066 268.95C199.702 270.562 198.152 272.236 196.416 273.972C194.68 275.708 192.82 277.258 190.836 278.622C188.976 279.986 186.93 281.102 184.698 281.97C182.466 282.962 180.172 283.458 177.816 283.458H177.444C171.244 283.458 165.726 279.862 160.89 272.67C156.054 265.478 152.148 254.628 149.172 240.12C147.808 233.672 146.754 226.728 146.01 219.288C145.266 211.848 144.77 204.16 144.522 196.224C144.398 192.504 144.336 188.846 144.336 185.25C144.46 181.654 144.584 178.058 144.708 174.462C139.748 176.446 134.726 178.306 129.642 180.042C124.558 181.778 119.474 183.514 114.39 185.25L98.208 190.83C100.316 210.794 101.37 226.852 101.37 239.004C101.494 251.032 100.13 259.216 97.278 263.556C96.162 265.292 94.054 266.532 90.954 267.276C87.854 268.02 84.63 268.268 81.282 268.02C78.058 267.896 75.206 267.4 72.726 266.532C70.246 265.664 69.068 264.486 69.192 262.998C69.068 262.254 69.192 261.572 69.564 260.952C70.06 260.456 70.618 259.898 71.238 259.278C71.982 258.782 72.664 258.224 73.284 257.604C73.904 256.984 74.338 256.116 74.586 255C74.958 253.264 75.268 251.094 75.516 248.49C75.764 245.762 75.826 242.662 75.702 239.19C75.702 233.858 75.454 227.968 74.958 221.52C74.462 215.072 73.904 208.252 73.284 201.06C67.332 204.036 62.558 207.26 58.962 210.732C55.366 214.08 53.568 217.8 53.568 221.892C53.568 222.884 53.196 223.752 52.452 224.496C51.708 225.24 50.84 225.612 49.848 225.612C48.856 225.612 47.988 225.24 47.244 224.496C46.5 223.752 46.128 222.884 46.128 221.892C46.128 216.56 48.174 211.538 52.266 206.826C54.002 204.842 56.11 202.982 58.59 201.246C61.07 199.386 63.922 197.588 67.146 195.852L72.354 193.062C72.354 185.87 71.796 178.678 70.68 171.486C69.688 164.17 68.944 156.668 68.448 148.98C65.72 150.096 62.992 151.212 60.264 152.328C57.66 153.32 54.994 154.312 52.266 155.304C46.314 157.536 40.672 159.83 35.34 162.186C30.008 164.418 25.296 166.898 21.204 169.626C17.112 172.354 13.888 175.516 11.532 179.112C9.176 182.708 7.998 186.924 7.998 191.76C7.998 192.752 7.626 193.62 6.882 194.364C6.138 195.108 5.27 195.48 4.278 195.48C3.286 195.48 2.418 195.108 1.674 194.364C0.93 193.62 0.558 192.752 0.558 191.76C0.558 180.6 5.828 171.3 16.368 163.86C20.832 160.636 25.854 157.846 31.434 155.49C37.138 153.134 43.152 150.778 49.476 148.422C52.7 147.182 55.8 146.004 58.776 144.888C61.876 143.648 64.914 142.346 67.89 140.982C67.518 132.798 67.456 125.296 67.704 118.476C68.076 111.656 69.006 106.076 70.494 101.736C72.354 96.032 75.206 91.444 79.05 87.972C82.646 84.748 86.614 82.764 90.954 82.02C94.674 81.4 98.208 81.71 101.556 82.95C105.028 84.19 107.818 86.174 109.926 88.902C112.282 92.126 113.584 95.846 113.832 100.062C114.204 104.278 113.212 108.928 110.856 114.012C107.26 122.072 101.556 129.016 93.744 134.844C93.992 142.284 94.488 150.158 95.232 158.466C95.976 166.774 96.72 175.02 97.464 183.204L111.972 178.182C117.552 176.322 123.07 174.4 128.526 172.416C134.106 170.432 139.624 168.386 145.08 166.278C145.452 160.946 146.01 155.676 146.754 150.468C147.746 143.028 148.986 136.208 150.474 130.008C151.962 123.684 153.76 118.228 155.868 113.64C160.084 103.844 165.23 96.218 171.306 90.762C177.01 85.678 182.838 82.95 188.79 82.578C192.634 82.33 196.106 83.074 199.206 84.81C202.306 86.422 204.848 88.902 206.832 92.25C210.056 97.458 211.172 103.906 210.18 111.594C209.064 120.026 205.778 128.582 200.322 137.262C194.618 146.314 185.008 154.622 171.492 162.186C170.376 175.206 170.19 188.846 170.934 203.106C171.43 211.538 172.174 219.536 173.166 227.1C174.158 234.54 175.522 241.36 177.258 247.56C178.87 253.884 180.482 258.658 182.094 261.882C183.83 265.23 185.628 267.276 187.488 268.02C189.348 268.764 191.208 268.454 193.068 267.09C195.052 265.726 197.036 263.556 199.02 260.58C201.128 257.728 203.298 254.194 205.53 249.978C207.762 245.762 210.118 241.174 212.598 236.214C215.202 231.13 217.558 226.17 219.666 221.334C221.774 216.374 223.572 212.034 225.06 208.314C226.548 204.47 227.664 201.37 228.408 199.014C229.276 196.534 229.71 195.294 229.71 195.294C229.958 194.302 230.516 193.62 231.384 193.248C232.376 192.752 233.368 192.628 234.36 192.876ZM202.74 110.85C203.484 104.774 202.678 99.814 200.322 95.97C199.454 94.482 198.214 94.172 196.602 95.04C194.99 95.908 193.254 97.458 191.394 99.69C189.534 101.922 187.674 104.588 185.814 107.688C183.954 110.664 182.404 113.64 181.164 116.616C179.18 121.08 177.444 126.412 175.956 132.612C174.592 138.688 173.414 145.446 172.422 152.886C177.134 150.034 181.288 146.996 184.884 143.772C188.48 140.548 191.518 137.014 193.998 133.17C196.478 129.326 198.462 125.544 199.95 121.824C201.438 117.98 202.368 114.322 202.74 110.85ZM104.16 111.036C105.648 107.812 106.33 104.65 106.206 101.55C106.206 98.45 105.71 96.218 104.718 94.854C103.85 93.49 102.61 93.366 100.998 94.482C99.386 95.598 97.774 98.76 96.162 103.968C95.294 106.448 94.674 109.548 94.302 113.268C93.93 116.864 93.744 120.894 93.744 125.358C95.852 123.25 97.774 121.08 99.51 118.848C101.246 116.492 102.796 113.888 104.16 111.036Z" fill="black"/>
<path d="M415.658 233.062C416.65 233.434 417.332 234.116 417.704 235.108C418.076 235.976 418.076 236.906 417.704 237.898C415.224 243.478 412.124 248.438 408.404 252.778C404.684 257.118 400.034 260.962 394.454 264.31C393.214 265.054 392.036 265.736 390.92 266.356C389.804 266.976 388.626 267.596 387.386 268.216C390.238 272.432 392.408 276.958 393.896 281.794C395.384 286.63 396.128 291.714 396.128 297.046C396.128 305.23 394.33 313.166 390.734 320.854C387.262 328.666 382.364 335.672 376.04 341.872C369.592 348.196 361.966 353.156 353.162 356.752C343.862 360.472 333.818 362.332 323.03 362.332C315.342 362.332 308.584 360.472 302.756 356.752C297.052 353.032 293.022 347.886 290.666 341.314C288.186 334.618 288.124 327.488 290.48 319.924C292.96 312.236 297.796 305.354 304.988 299.278C313.668 292.086 322.534 286.506 331.586 282.538C340.762 278.446 349.566 274.912 357.998 271.936C354.03 265.86 348.326 260.466 340.886 255.754C333.446 251.042 323.898 247.632 312.242 245.524C311.746 245.524 311.188 245.276 310.568 244.78C309.948 244.284 309.452 243.664 309.08 242.92C308.832 242.176 308.832 241.432 309.08 240.688C309.452 239.82 310.258 239.076 311.498 238.456C315.714 236.596 320.364 233.062 325.448 227.854C330.656 222.522 335.244 216.322 339.212 209.254C343.18 201.938 346.094 194.746 347.954 187.678C349.814 180.486 350.372 174.1 349.628 168.52C348.636 160.956 346.404 155.934 342.932 153.454C339.584 150.974 335.74 150.168 331.4 151.036C327.184 151.78 322.844 153.888 318.38 157.36C313.916 160.708 310.134 164.552 307.034 168.892C302.818 174.844 298.85 181.974 295.13 190.282C291.534 198.59 288.248 208.076 285.272 218.74C282.668 227.792 280.498 236.534 278.762 244.966C277.026 253.274 275.662 260.714 274.67 267.286C273.678 273.734 272.996 278.942 272.624 282.91C272.252 286.754 272.066 288.738 272.066 288.862C271.818 290.35 271.012 291.838 269.648 293.326C268.284 294.69 266.61 295.868 264.626 296.86C262.642 297.976 260.534 298.782 258.302 299.278C256.07 299.774 253.962 299.836 251.978 299.464C250.118 299.092 248.506 298.286 247.142 297.046C245.902 295.806 245.22 293.884 245.096 291.28C245.096 291.156 244.91 289.42 244.538 286.072C244.29 282.724 243.98 278.26 243.608 272.68C243.236 266.976 242.864 260.466 242.492 253.15C242.12 245.71 241.81 237.898 241.562 229.714C241.314 220.91 241.128 212.726 241.004 205.162C241.004 197.598 241.128 190.592 241.376 184.144C239.144 184.888 236.85 185.632 234.494 186.376C232.262 186.996 229.968 187.678 227.612 188.422C220.296 190.654 213.352 192.948 206.78 195.304C200.208 197.66 194.38 200.512 189.296 203.86C183.716 207.456 179.624 211.548 177.02 216.136C174.54 220.6 173.3 225.808 173.3 231.76C173.3 232.752 172.928 233.62 172.184 234.364C171.44 235.108 170.572 235.48 169.58 235.48C168.588 235.48 167.72 235.108 166.976 234.364C166.232 233.62 165.86 232.752 165.86 231.76C165.86 217.376 172.308 205.968 185.204 197.536C190.784 193.94 197.046 190.902 203.99 188.422C211.058 185.942 218.188 183.586 225.38 181.354C228.232 180.486 230.96 179.68 233.564 178.936C236.292 178.068 239.02 177.138 241.748 176.146C242.492 160.646 244.166 149.176 246.77 141.736C248.63 135.66 251.73 130.762 256.07 127.042C259.914 123.57 264.254 121.462 269.09 120.718C272.934 120.098 276.468 120.408 279.692 121.648C283.04 122.764 285.768 124.624 287.876 127.228C288.62 128.096 289.302 129.212 289.922 130.576C290.666 131.94 291.162 133.614 291.41 135.598C291.658 137.458 291.596 139.69 291.224 142.294C290.852 144.774 289.984 147.564 288.62 150.664C286.512 155.5 283.66 159.716 280.064 163.312C276.468 166.784 272.438 169.884 267.974 172.612C267.602 179.06 267.354 185.942 267.23 193.258C267.106 200.574 267.106 207.952 267.23 215.392C267.354 222.832 267.54 230.21 267.788 237.526C268.036 244.718 268.346 251.414 268.718 257.614C269.834 251.414 271.136 244.842 272.624 237.898C274.112 230.83 275.91 223.7 278.018 216.508C284.342 194.684 292.03 177.386 301.082 164.614C312.738 148.122 326.254 139.876 341.63 139.876C353.41 139.876 362.276 142.976 368.228 149.176C373.808 154.756 376.598 162.258 376.598 171.682C376.598 179.494 374.8 187.74 371.204 196.42C367.732 204.728 363.082 212.602 357.254 220.042C353.658 224.382 349.938 228.226 346.094 231.574C342.374 234.798 338.53 237.464 334.562 239.572C340.142 240.564 345.288 241.68 350 242.92C360.044 245.896 368.724 250.236 376.04 255.94C377.28 256.932 378.396 257.986 379.388 259.102C380.504 260.094 381.558 261.148 382.55 262.264C388.75 259.288 394.268 255.692 399.104 251.476C403.94 247.26 407.846 241.742 410.822 234.922C411.318 233.93 412 233.248 412.868 232.876C413.736 232.504 414.666 232.566 415.658 233.062ZM281.738 147.688C283.598 143.596 284.404 140.248 284.156 137.644C284.032 135.04 283.35 133.49 282.11 132.994C280.87 132.374 279.32 132.932 277.46 134.668C275.6 136.404 273.926 139.504 272.438 143.968C271.57 146.448 270.826 149.3 270.206 152.524C269.71 155.624 269.214 159.158 268.718 163.126C271.57 161.018 274.112 158.724 276.344 156.244C278.576 153.64 280.374 150.788 281.738 147.688ZM297.734 338.896C298.354 340.632 299.346 342.43 300.71 344.29C302.198 346.15 303.872 347.824 305.732 349.312C307.716 350.8 309.762 351.978 311.87 352.846C314.102 353.714 316.272 353.962 318.38 353.59C326.812 352.102 334.066 349.436 340.142 345.592C346.218 341.872 351.178 337.47 355.022 332.386C358.99 327.302 361.904 321.846 363.764 316.018C365.624 310.19 366.554 304.548 366.554 299.092C366.554 295.744 366.182 292.334 365.438 288.862C364.694 285.39 363.516 281.918 361.904 278.446C357.564 279.934 353.162 281.546 348.698 283.282C344.234 284.894 339.832 286.754 335.492 288.862C331.152 290.846 326.812 293.14 322.472 295.744C318.132 298.348 313.916 301.386 309.824 304.858C303.996 309.694 299.966 315.15 297.734 321.226C295.626 327.302 295.626 333.192 297.734 338.896Z" fill="black"/>
<g filter="url(#filter0_d_319_10)">
<path d="M244.799 9.86596C238.408 7.15282 231.712 7.09495 225.844 8.96255C220.093 10.8795 215.287 14.7712 212.848 20.5156C210.662 25.6656 210.921 31.2481 212.94 36.4199C213.326 37.4105 213.713 38.4026 214.008 39.4243L225.322 78.6572C229.015 91.4646 243.552 97.6351 255.331 91.3951L291.285 72.3476C292.309 71.8051 293.384 71.3673 294.455 70.9248C299.477 68.85 303.615 65.1714 305.819 59.9794C308.214 54.3376 307.675 48.1767 305.102 42.6055C302.486 37.1368 297.793 32.3603 291.285 29.5979C284.893 26.8847 278.197 26.8269 272.33 28.6945C266.578 30.6114 261.772 34.5031 259.334 40.2475C261.728 34.6057 261.189 28.4448 258.616 22.8736C256 17.4049 251.307 12.6284 244.799 9.86596Z" fill="black"/>
</g>
<g filter="url(#filter1_d_319_10)">
<path d="M210.187 394.917C216.254 397.404 222.61 397.457 228.179 395.745C233.638 393.988 238.201 390.421 240.515 385.155C242.576 380.467 242.348 375.388 240.468 370.675C240.079 369.699 239.683 368.723 239.383 367.716L229.006 332.967C225.297 320.546 210.964 314.67 199.135 320.722L166.172 337.586C165.127 338.121 164.032 338.55 162.944 338.991C158.226 340.9 154.342 344.257 152.266 348.98C149.993 354.151 150.505 359.799 152.947 364.906C155.43 369.919 159.885 374.297 166.062 376.83C172.129 379.317 178.485 379.37 184.055 377.658C189.514 375.9 194.076 372.333 196.391 367.067C194.118 372.239 194.63 377.887 197.072 382.994C199.555 388.006 204.01 392.385 210.187 394.917Z" fill="black"/>
</g>
<defs>
<filter id="filter0_d_319_10" x="207.314" y="7.67773" width="104.038" height="94.1709" filterUnits="userSpaceOnUse" color-interpolation-filters="sRGB">
<feFlood flood-opacity="0" result="BackgroundImageFix"/>
<feColorMatrix in="SourceAlpha" type="matrix" values="0 0 0 0 0 0 0 0 0 0 0 0 0 0 0 0 0 0 127 0" result="hardAlpha"/>
<feOffset dy="4"/>
<feGaussianBlur stdDeviation="2"/>
<feComposite in2="hardAlpha" operator="out"/>
<feColorMatrix type="matrix" values="0 0 0 0 0 0 0 0 0 0 0 0 0 0 0 0 0 0 0.25 0"/>
<feBlend mode="normal" in2="BackgroundImageFix" result="effect1_dropShadow_319_10"/>
<feBlend mode="normal" in="SourceGraphic" in2="effect1_dropShadow_319_10" result="shape"/>
</filter>
<filter id="filter1_d_319_10" x="146.81" y="318.322" width="99.161" height="86.6006" filterUnits="userSpaceOnUse" color-interpolation-filters="sRGB">
<feFlood flood-opacity="0" result="BackgroundImageFix"/>
<feColorMatrix in="SourceAlpha" type="matrix" values="0 0 0 0 0 0 0 0 0 0 0 0 0 0 0 0 0 0 127 0" result="hardAlpha"/>
<feOffset dy="4"/>
<feGaussianBlur stdDeviation="2"/>
<feComposite in2="hardAlpha" operator="out"/>
<feColorMatrix type="matrix" values="0 0 0 0 0 0 0 0 0 0 0 0 0 0 0 0 0 0 0.25 0"/>
<feBlend mode="normal" in2="BackgroundImageFix" result="effect1_dropShadow_319_10"/>
<feBlend mode="normal" in="SourceGraphic" in2="effect1_dropShadow_319_10" result="shape"/>
</filter>
</defs>
</svg>
