<svg width="153" height="110" viewBox="0 0 153 110" fill="none" xmlns="http://www.w3.org/2000/svg">
<path d="M64.3108 49.2832C65.3145 45.8627 65.7143 43.4906 65.5108 42.1693C65.3917 41.3991 64.9817 40.5881 64.2847 39.735C63.5852 38.885 62.706 38.1447 61.6477 37.5157C60.587 36.8898 59.4872 36.3816 58.3507 35.9896C57.2126 35.6 56.1466 35.4801 55.1501 35.6314C53.8204 35.8337 51.8514 37.4014 49.2429 40.3353C46.6336 43.2683 43.8327 46.7972 40.8403 50.9141C37.8455 55.0349 34.8877 59.374 31.964 63.9329C29.0377 68.4942 26.594 72.5027 24.6346 75.9544C27.1155 70.7316 29.9898 65.1077 33.2582 59.0858C36.5233 53.067 39.9284 47.0247 43.4736 40.9605C47.0162 34.8994 50.4976 28.9845 53.9183 23.2222C57.3374 17.4597 60.4966 12.218 63.3984 7.49075C64.0192 6.38147 63.8281 5.31239 62.8188 4.28254C61.8095 3.25269 60.5194 2.43353 58.9545 1.82683C57.3866 1.22003 55.7776 0.902533 54.1303 0.870466C52.4812 0.840713 51.3764 1.20541 50.814 1.96843C48.7503 4.76379 46.0903 8.83287 42.8324 14.1741C39.5744 19.5184 36.0947 25.4594 32.3995 31.9947C28.7011 38.5338 24.9658 45.3853 21.1983 52.553C17.4267 59.7222 14.0333 66.5795 11.0187 73.126C8.00253 79.6723 5.54368 85.5996 3.63992 90.903C1.73683 96.2103 0.768918 100.217 0.731303 102.928C0.741415 103.717 1.09417 104.538 1.79123 105.388C2.49143 106.24 3.36745 106.982 4.42819 107.607C5.48722 108.237 6.61487 108.74 7.80706 109.122C8.99838 109.506 10.094 109.619 11.0912 109.467C11.865 109.349 13.261 106.996 15.2745 102.404C16.0403 102.964 16.9244 103.564 17.931 104.198C18.9353 104.834 19.9881 105.406 21.0863 105.915C22.1853 106.424 23.2629 106.796 24.3194 107.029C25.3757 107.264 26.3276 107.201 27.182 106.846C30.0878 105.841 33.0769 103.723 36.1501 100.493C39.2241 97.2636 42.2081 93.4566 45.1031 89.0684C47.9981 84.6826 50.7345 80.0096 53.3161 75.0518C55.8945 70.0939 58.1227 65.4164 59.9952 61.0159C61.87 56.617 63.3085 52.7069 64.3108 49.2832ZM48.1185 52.3424C47.0975 54.9224 45.7155 58.0925 43.9719 61.8497C42.2267 65.6108 40.1567 69.6459 37.7604 73.9548C35.3639 78.2677 32.9418 82.2422 30.5002 85.8823C28.0562 89.5254 25.6551 92.5125 23.2932 94.8418C20.9319 97.1743 18.8378 98.3101 17.0163 98.2502L19.7044 91.4164C20.4816 89.8346 21.7208 87.5876 23.4277 84.6772C25.132 81.7707 27.0077 78.666 29.0497 75.367C31.0925 72.0704 33.1815 68.7097 35.3184 65.282C37.4528 61.8573 39.5073 58.8106 41.4762 56.1432C43.4466 53.4758 45.1031 51.3637 46.452 49.8064C47.7985 48.2482 48.7271 47.658 49.2387 48.0294C49.511 48.3262 49.1371 49.7647 48.1185 52.3424ZM80.0708 74.6522C82.1689 75.405 84.0708 75.4248 85.7764 74.7131C88.4414 73.6301 91.1062 71.4229 93.7677 68.0851C96.426 64.7505 98.8453 61.1397 101.027 57.2574C103.205 53.3743 104.927 49.6464 106.19 46.0729C107.451 42.4985 108.012 39.8768 107.869 38.2085C107.774 36.8706 106.898 35.5958 105.239 34.3818C103.578 33.1709 101.614 32.2023 99.3496 31.4737C97.0828 30.749 94.7211 30.3192 92.2644 30.1865C89.8053 30.0537 87.7892 30.3904 86.2131 31.1932C83.5962 32.6067 80.9435 34.7009 78.2549 37.4781C75.5631 40.2552 72.9925 43.4358 70.5422 47.0213C68.0895 50.6076 65.8511 54.4732 63.8256 58.6118C61.7992 62.7536 60.2205 66.8549 59.0902 70.9157C57.9576 74.9771 57.2879 78.9135 57.082 82.7184C56.8751 86.5288 57.3965 89.9141 58.6474 92.8788C59.1659 94.0417 60.1093 95.0232 61.4822 95.8298C62.8528 96.6347 64.3674 97.2785 66.0302 97.7566C67.6905 98.2385 69.3782 98.515 71.09 98.5923C72.8026 98.6687 74.1481 98.5755 75.1287 98.3143C76.5492 97.9847 78.2382 97.1655 80.1911 95.8539C82.1408 94.5423 84.1058 92.9486 86.0849 91.0671C88.0623 89.1879 89.9835 87.1205 91.8462 84.8633C93.7095 82.6085 95.3647 80.298 96.8156 77.9344C97.7184 76.4444 97.9516 75.5639 97.5139 75.2922C97.0737 75.0213 96.2191 75.5475 94.9501 76.8663C92.971 78.7478 91.0143 80.5685 89.0752 82.3268C87.1353 84.0889 85.3038 85.6354 83.5823 86.967C81.8592 88.3025 80.2986 89.3861 78.8974 90.2177C77.4954 91.0516 76.3498 91.5355 75.4655 91.6705C72.5495 91.8905 71.1428 90.1052 71.2391 86.3128C71.3345 82.5235 72.3598 77.7725 74.3151 72.0644C76.0511 73.0398 77.9695 73.9024 80.0708 74.6522ZM79.6123 61.1963C81.2252 58.4139 82.9787 55.6394 84.8762 52.8699C86.7728 50.1028 88.7288 47.5216 90.7404 45.1278C92.7534 42.7379 94.5966 40.736 96.2771 39.1277C97.5801 38.0295 98.3058 37.5806 98.4503 37.7816C98.5938 37.9889 98.4291 38.7453 97.9505 40.0563C96.8058 42.9366 95.2403 46.0227 93.2547 49.3108C91.2668 52.6012 89.1869 55.6527 87.0127 58.4614C84.8361 61.2723 82.7372 63.6518 80.7144 65.5926C78.6899 67.5366 77.0219 68.6651 75.7097 68.9749C76.6994 66.5719 78.0011 63.9772 79.6123 61.1963ZM142.188 67.8483C141.749 67.5773 140.894 68.1028 139.625 69.4224C137.645 71.303 135.689 73.1238 133.75 74.8828C131.81 76.6442 129.978 78.1907 128.258 79.5223C126.534 80.8586 124.974 81.9414 123.572 82.7737C122.17 83.6068 121.025 84.0908 120.14 84.2257C117.224 84.4458 115.817 82.6605 115.913 78.8681C116.01 75.0788 117.034 70.3285 118.989 64.6197C120.725 65.5966 122.645 66.4585 124.744 67.209C126.842 67.9619 128.745 67.9809 130.45 67.2699C133.116 66.1869 135.781 63.9789 138.441 60.6412C141.1 57.3065 143.52 53.6957 145.701 49.8142C147.879 45.9311 149.601 42.2032 150.864 38.6289C152.126 35.0553 152.686 32.4329 152.543 30.7645C152.448 29.4266 151.572 28.1519 149.913 26.9379C148.252 25.7269 146.287 24.7591 144.024 24.0306C141.757 23.3051 139.395 22.8752 136.939 22.7425C134.479 22.6097 132.464 22.9472 130.887 23.7493C128.27 25.1627 125.618 27.2577 122.928 30.0341C120.237 32.8112 117.667 35.9918 115.217 39.5781C112.764 43.1636 110.525 47.03 108.499 51.1679C106.473 55.3097 104.894 59.4109 103.764 63.4725C102.631 67.5331 101.962 71.4695 101.756 75.2753C101.549 79.0857 102.07 82.4709 103.322 85.4357C103.841 86.5977 104.784 87.58 106.157 88.3858C107.527 89.1915 109.042 89.8346 110.705 90.3127C112.365 90.7946 114.053 91.0711 115.764 91.1483C117.477 91.2248 118.823 91.1316 119.803 90.8711C121.224 90.5416 122.913 89.7215 124.865 88.4108C126.815 87.0992 128.78 85.5046 130.759 83.6231C132.737 81.7447 134.658 79.6766 136.521 77.4194C138.385 75.1645 140.039 72.854 141.49 70.4912C142.393 69.0004 142.626 68.12 142.188 67.8483ZM124.288 53.7516C125.9 50.9691 127.654 48.1947 129.551 45.4252C131.447 42.658 133.403 40.0768 135.416 37.6838C137.428 35.2932 139.272 33.2913 140.952 31.6829C142.254 30.5848 142.98 30.1359 143.125 30.3377C143.268 30.5441 143.104 31.3006 142.626 32.6124C141.48 35.4919 139.915 38.578 137.93 41.8669C135.941 45.1572 133.861 48.2087 131.687 51.0174C129.511 53.8292 127.412 56.2079 125.39 58.1487C123.364 60.0926 121.697 61.2211 120.385 61.531C121.375 59.1264 122.676 56.5317 124.288 53.7516Z" fill="#FFF9F9"/>
</svg>
